<svg width="70" height="70" viewBox="0 0 70 70" fill="none" xmlns="http://www.w3.org/2000/svg">
<path opacity="0.779" fill-rule="evenodd" clip-rule="evenodd" d="M49.5833 16.5278C46.3425 20.4167 43.1019 24.3056 39.8611 28.1944C37.2686 27.5464 34.6759 26.8981 32.0833 26.25C32.0833 20.4167 32.0833 14.5833 32.0833 8.75C32.0833 6.80556 32.0833 4.86111 32.0833 2.91667C34.7538 2.61201 37.3466 2.93609 39.8611 3.88889C42.8834 8.49862 46.1242 12.7116 49.5833 16.5278Z" fill="#BEA9FC"/>
<path opacity="0.796" fill-rule="evenodd" clip-rule="evenodd" d="M32.0833 8.75C32.0833 14.5833 32.0833 20.4167 32.0833 26.25C32.0833 27.5464 31.4352 28.1944 30.1389 28.1944C25.3136 23.9655 20.1283 20.0766 14.5833 16.5278C13.3373 14.6179 12.041 12.6734 10.6944 10.6944C17.7086 8.77096 24.8383 8.1228 32.0833 8.75Z" fill="#855CDF"/>
<path opacity="0.664" fill-rule="evenodd" clip-rule="evenodd" d="M59.3056 34.0278C52.8241 34.0278 46.3425 34.0278 39.8611 34.0278C38.4244 34.2825 37.128 33.9584 35.9722 33.0556C38.4144 32.2449 39.7106 30.6246 39.8611 28.1944C43.1019 24.3056 46.3425 20.4167 49.5833 16.5278C52.149 13.7242 55.3898 12.4279 59.3056 12.6389C59.3056 19.7686 59.3056 26.8981 59.3056 34.0278Z" fill="#845ADE"/>
<path opacity="0.827" fill-rule="evenodd" clip-rule="evenodd" d="M14.5833 16.5278C20.1283 20.0766 25.3136 23.9655 30.1389 28.1944C28.5091 28.8589 27.8608 30.1552 28.1944 32.0833C26.8981 32.0833 26.25 32.7314 26.25 34.0278C20.4167 34.0278 14.5833 34.0278 8.75 34.0278C5.87646 34.5372 3.28385 33.8891 0.972221 32.0833C5.55296 26.8598 10.09 21.6747 14.5833 16.5278Z" fill="#BDA7FB"/>
<path opacity="0.758" fill-rule="evenodd" clip-rule="evenodd" d="M28.1944 32.0833C30.3819 33.7318 30.3819 35.6763 28.1944 37.9167C24.3625 42.4048 20.4736 46.9418 16.5278 51.5278C14.6467 54.0676 12.0542 55.364 8.75 55.4167C8.75 48.287 8.75 41.1575 8.75 34.0278C14.5833 34.0278 20.4167 34.0278 26.25 34.0278C27.5464 34.0278 28.1944 33.3797 28.1944 32.0833Z" fill="#855CDF"/>
<path opacity="0.779" fill-rule="evenodd" clip-rule="evenodd" d="M39.8611 34.0278C46.3425 34.0278 52.8241 34.0278 59.3056 34.0278C61.25 34.0278 63.1944 34.0278 65.1389 34.0278C64.6944 37.7864 63.0741 41.0272 60.2778 43.75C56.4039 45.3602 53.4872 47.9527 51.5278 51.5278C46.3425 47.6389 41.8056 43.1019 37.9167 37.9167C38.5648 36.6203 39.213 35.3241 39.8611 34.0278Z" fill="#BEA9FD"/>
<path opacity="0.834" fill-rule="evenodd" clip-rule="evenodd" d="M28.1944 37.9167C30.3508 38.0273 32.2953 38.6754 34.0278 39.8611C34.0278 46.3425 34.0278 52.8241 34.0278 59.3056C34.0278 61.25 34.0278 63.1944 34.0278 65.1389C26.5759 62.8936 20.7426 58.3567 16.5278 51.5278C20.4736 46.9418 24.3625 42.4048 28.1944 37.9167Z" fill="#BDA7FB"/>
<path opacity="0.733" fill-rule="evenodd" clip-rule="evenodd" d="M37.9167 37.9167C41.8056 43.1019 46.3425 47.6389 51.5278 51.5278C54.0676 53.4088 55.364 56.0014 55.4167 59.3056C48.287 59.3056 41.1575 59.3056 34.0278 59.3056C34.0278 52.8241 34.0278 46.3425 34.0278 39.8611C35.3241 39.213 36.6203 38.5648 37.9167 37.9167Z" fill="#845ADE"/>
</svg>
