<svg width="70" height="70" viewBox="0 0 70 70" fill="none" xmlns="http://www.w3.org/2000/svg">
<path d="M17.5 43.645L21.5141 45.6575C20.4935 48.0779 19.1426 50.3453 17.5 52.395C16.0663 50.6083 14.8543 48.6545 13.8906 46.5763C13.7484 46.27 13.6062 45.9638 13.4859 45.6466L17.5 43.645Z" fill="#FFEAA7"/>
<path d="M20.7812 38.1763C21.7219 38.2638 22.6406 38.4497 23.5156 38.7122L23.2531 40.0575C22.8631 41.9779 22.2804 43.854 21.5141 45.6575L17.5 43.645L20.7812 38.1763ZM14.2188 38.1763L17.5 43.645L13.4859 45.6466C12.7094 43.8528 12.1406 41.9825 11.7469 40.0575L11.4844 38.7231C12.3594 38.4497 13.2672 38.2638 14.2188 38.1763Z" fill="#FCD770"/>
<path d="M13.4859 45.6466C13.6063 45.9638 13.7484 46.27 13.8906 46.5762C14.8543 48.6545 16.0663 50.6083 17.5 52.395C19.1427 50.3453 20.4935 48.0779 21.5141 45.6575C22.2797 43.8637 22.8594 41.9825 23.2531 40.0575L23.5156 38.7122C24.9922 39.1716 26.3594 39.8825 27.5625 40.7903C27.8738 41.8686 28.5106 42.8245 29.3856 43.5273C30.2607 44.2301 31.3315 44.6456 32.4516 44.7169V44.7278L31.7188 46.9262C31.0188 47.0575 30.3406 47.2325 29.6844 47.4512C27.0594 48.3262 24.7953 49.9122 23.0891 51.9575C21.4484 53.9263 20.3109 56.3325 19.8844 58.9575H2.18751V51.3559C2.18386 48.5332 3.08462 45.7835 4.75772 43.5101C6.43082 41.2367 8.78825 39.559 11.4844 38.7231L11.7469 40.0575C12.1406 41.9825 12.7094 43.8528 13.4859 45.6466Z" fill="#4FC1E9"/>
<path d="M47.5016 33.845C47.6875 35.0919 48.3 36.1638 49.1969 36.9403C50.0828 37.7169 51.2422 38.1763 52.5 38.1763C55.0156 38.1763 57.1375 36.3278 57.4985 33.845L57.6078 33.0575V33.0466C60.9766 33.8122 63.8094 35.8466 65.625 38.5809C67.0141 40.67 67.8125 43.1638 67.8125 45.8325V53.4888H48.0266C46.2233 50.6483 43.4962 48.5161 40.3047 47.4513C39.6485 47.2325 38.9813 47.0575 38.2813 46.9263L37.5485 44.7278V44.7169C38.9332 44.6297 40.2326 44.0177 41.1817 43.0056C42.1308 41.9935 42.6582 40.6575 42.6563 39.27H43.75C44.6578 39.27 45.4781 38.8981 46.0688 38.3075C46.3807 37.997 46.6268 37.6268 46.7924 37.219C46.958 36.8113 47.0397 36.3743 47.0325 35.9342C47.0254 35.4941 46.9296 35.06 46.7508 34.6578C46.5721 34.2557 46.3141 33.8936 45.9922 33.5934L46.025 33.4513C46.4625 33.2872 46.9219 33.1559 47.3922 33.0575L47.5016 33.845Z" fill="#5CD6B3"/>
<path d="M26.25 67.7075H19.6875V61.3419C19.6875 60.5325 19.7531 59.7341 19.8844 58.9575C20.3109 56.3325 21.4484 53.9263 23.0891 51.9575C24.7953 49.9122 27.0594 48.3262 29.6844 47.4512L29.6953 47.4731L30.625 56.77L35 51.3012L39.375 56.77L40.3047 47.4512C43.5531 48.5341 46.2547 50.6997 48.0266 53.4887C49.4813 55.7747 50.3125 58.4762 50.3125 61.3419V67.7075H43.75H26.25Z" fill="#FF826E"/>
<path d="M40.3047 47.4513L39.375 56.77L35 51.3013L38.2813 46.9263C38.9813 47.0575 39.6484 47.2325 40.3047 47.4513ZM31.7188 46.9263L35 51.3013L30.625 56.77L29.6953 47.4731L29.6844 47.4513C30.3406 47.2325 31.0188 47.0575 31.7188 46.9263Z" fill="#FC6E51"/>
<path d="M50.3125 29.4263L49.6234 31.4825C49.3719 32.2372 48.7266 32.795 47.9391 32.9372C47.7531 32.97 47.5672 33.0138 47.3922 33.0575C46.9219 33.1559 46.4625 33.2872 46.025 33.4513L46.8016 30.3559C46.9547 29.7434 47.0312 29.1091 47.0312 28.4638C47.0312 27.9825 46.9875 27.5122 46.8891 27.0638H46.9C47.7085 28.2325 48.9403 29.0406 50.3344 29.3169L50.3125 29.4263ZM59.0625 15.2075H54.6875C52.2703 15.2075 50.3125 13.2497 50.3125 10.8325C50.3125 13.2497 48.3547 15.2075 45.9375 15.2075V23.9575C45.9375 24.1544 45.9484 24.3513 45.9703 24.5372L45.9594 24.5481L44.7453 22.9622C43.8703 22.0872 42.7766 21.4091 41.5625 21.0263V14.1138C41.5625 7.46375 46.9437 2.0825 53.5938 2.0825C56.9187 2.0825 59.9266 3.42782 62.1031 5.60438C64.2797 7.78094 65.625 10.7888 65.625 14.1138V38.5809C64.6502 37.1129 63.3893 35.8564 61.9179 34.8867C60.4464 33.917 58.7945 33.254 57.0609 32.9372C56.2734 32.795 55.6281 32.2372 55.3766 31.4825L54.6875 29.4263H55.7812C58.8 29.4263 61.25 26.9763 61.25 23.9575V15.2075H59.0625Z" fill="#FCD770"/>
<path d="M22.9688 20.6763H18.5938C16.1766 20.6763 14.2188 18.7184 14.2188 16.3013C14.2188 18.7184 12.2609 20.6763 9.84375 20.6763V22.8638H8.75C7.79844 22.8638 6.94531 23.2684 6.35469 23.9138C5.78594 22.8966 5.46875 21.7481 5.46875 20.5559V19.6919C5.46875 18.0731 6.0375 16.5638 7.01094 15.3716C8.00736 14.1559 9.39548 13.3246 10.9375 13.02L11.2437 12.4075C11.8076 11.2772 12.6754 10.3264 13.7495 9.6618C14.8237 8.9972 16.0618 8.6451 17.325 8.645H19.3266C22.1375 8.645 24.6969 9.7825 26.5453 11.6309C28.3938 13.4794 29.5312 16.0388 29.5312 18.8497C29.5312 19.5169 29.4656 20.1731 29.3453 20.8075V20.8184C27.7156 21.1028 26.2609 21.9122 25.1562 23.0606V20.6763H22.9688Z" fill="#656D78"/>
<path d="M42.6563 30.52H33.9063C32.4735 30.52 31.0516 29.5903 30.2313 28.3325C28.6344 28.3325 27.3438 29.6231 27.3438 31.22V32.7075H26.25C25.375 32.7075 24.5875 33.0466 24.0078 33.5934L23.8547 32.97L23.1985 30.3559C22.8797 29.0737 22.8921 27.7314 23.2346 26.4553C23.577 25.1791 24.2383 24.011 25.1563 23.0606C26.279 21.8872 27.7462 21.1018 29.3453 20.8184C29.8047 20.72 30.275 20.6763 30.7563 20.6763H39.2438C40.0531 20.6763 40.8297 20.7966 41.5625 21.0263C42.7766 21.4091 43.8703 22.0872 44.7453 22.9622L45.9594 24.5481C46.4188 25.3138 46.736 26.1559 46.8891 27.0638C46.9875 27.5122 47.0313 27.9825 47.0313 28.4638C47.0313 29.1091 46.9547 29.7434 46.8016 30.3559L46.025 33.4513C45.9703 33.4622 45.9266 33.4731 45.8828 33.495C45.3141 33.0028 44.5703 32.7075 43.75 32.7075H42.6563V30.52Z" fill="#656D78"/>
<path d="M19.6875 34.895L20.7812 38.1763L17.5 43.645L14.2188 38.1763L15.3125 34.895H19.6875Z" fill="#F0D0B4"/>
<path d="M25.1562 20.6763V23.0606C24.2374 24.0104 23.5756 25.1785 23.233 26.4549C22.8905 27.7312 22.8786 29.0737 23.1984 30.3559L23.8547 32.97C23.342 33.5748 22.7035 34.0604 21.9838 34.3929C21.264 34.7254 20.4803 34.8968 19.6875 34.895H15.3125C12.2937 34.895 9.84375 32.445 9.84375 29.4263V20.6763C12.2609 20.6763 14.2188 18.7184 14.2188 16.3013C14.2188 18.7184 16.1766 20.6763 18.5938 20.6763H22.9688H25.1562ZM9.84375 22.8638V29.4263H8.75C7.84219 29.4263 7.02188 29.0544 6.43125 28.4638C5.84063 27.8731 5.46875 27.0528 5.46875 26.145C5.46875 25.2809 5.80781 24.4934 6.35469 23.9138C6.94531 23.2684 7.79844 22.8638 8.75 22.8638H9.84375ZM57.4984 33.845C57.3251 35.0473 56.7245 36.1468 55.8065 36.9423C54.8885 37.7377 53.7147 38.1758 52.5 38.1763C51.2422 38.1763 50.0828 37.7169 49.1969 36.9403C48.2776 36.1463 47.6756 35.0472 47.5016 33.845L47.3922 33.0575C47.5672 33.0138 47.7531 32.97 47.9391 32.9372C48.7266 32.795 49.3719 32.2372 49.6234 31.4825L50.3125 29.4263L50.3344 29.3169C50.6844 29.3934 51.0344 29.4263 51.4062 29.4263H54.6875L55.3766 31.4825C55.6281 32.2372 56.2734 32.795 57.0609 32.9372C57.2469 32.97 57.4219 33.0028 57.6078 33.0466V33.0575L57.4984 33.845Z" fill="#F0D0B4"/>
<path d="M61.25 15.2075V23.9575C61.25 26.9763 58.8 29.4263 55.7812 29.4263H51.4062C51.0344 29.4263 50.6844 29.3934 50.3344 29.3169C48.9403 29.0406 47.7085 28.2325 46.9 27.0638H46.8891C46.7398 26.1743 46.4244 25.3209 45.9594 24.5481L45.9703 24.5372C45.9484 24.3513 45.9375 24.1544 45.9375 23.9575V15.2075C48.3547 15.2075 50.3125 13.2497 50.3125 10.8325C50.3125 13.2497 52.2703 15.2075 54.6875 15.2075H59.0625H61.25ZM47.0312 35.9888C47.0312 36.8966 46.6594 37.7169 46.0687 38.3075C45.4781 38.8981 44.6578 39.27 43.75 39.27H42.6562V32.7075H43.75C44.5703 32.7075 45.3141 33.0028 45.8828 33.495C45.9156 33.5278 45.9594 33.5606 45.9922 33.5934C46.6375 34.195 47.0312 35.0481 47.0312 35.9888ZM37.1875 44.7388C37.3078 44.7388 37.4281 44.7388 37.5484 44.7169V44.7278L38.2812 46.9263L35 51.3013L31.7188 46.9263L32.4516 44.7278V44.7169C32.5719 44.7388 32.6922 44.7388 32.8125 44.7388H37.1875Z" fill="#F0D0B4"/>
<path d="M38.2812 30.52H42.6562V39.27C42.6562 42.1684 40.4031 44.5419 37.5484 44.7169C37.4281 44.7388 37.3078 44.7388 37.1875 44.7388H32.8125C32.6922 44.7388 32.5719 44.7388 32.4515 44.7169C31.3314 44.6456 30.2607 44.2301 29.3856 43.5273C28.5105 42.8245 27.8738 41.8686 27.5625 40.7903C27.4203 40.3091 27.3437 39.795 27.3437 39.27V31.22C27.3437 29.6231 28.6344 28.3325 30.2312 28.3325C31.0515 29.5903 32.4734 30.52 33.9062 30.52H38.2812ZM27.3437 32.7075V39.27H26.25C25.3422 39.27 24.5219 38.8981 23.9312 38.3075C23.6193 37.997 23.3732 37.6268 23.2076 37.219C23.042 36.8112 22.9603 36.3743 22.9675 35.9342C22.9746 35.4941 23.0704 35.06 23.2492 34.6578C23.4279 34.2557 23.6859 33.8936 24.0078 33.5934C24.5875 33.0466 25.375 32.7075 26.25 32.7075H27.3437Z" fill="#F0D0B4"/>
<path d="M31.7188 35.9888C32.3228 35.9888 32.8125 35.4991 32.8125 34.895C32.8125 34.2909 32.3228 33.8013 31.7188 33.8013C31.1147 33.8013 30.625 34.2909 30.625 34.895C30.625 35.4991 31.1147 35.9888 31.7188 35.9888Z" fill="black"/>
<path d="M38.2812 35.9888C38.8853 35.9888 39.375 35.4991 39.375 34.895C39.375 34.2909 38.8853 33.8013 38.2812 33.8013C37.6772 33.8013 37.1875 34.2909 37.1875 34.895C37.1875 35.4991 37.6772 35.9888 38.2812 35.9888Z" fill="black"/>
<path d="M36.0938 39.27H31.7188V41.4575H36.0938C37.9028 41.4575 39.375 39.9853 39.375 38.1763H37.1875C37.1875 38.78 36.6964 39.27 36.0938 39.27Z" fill="black"/>
<path d="M50.3125 20.6763C50.9166 20.6763 51.4062 20.1866 51.4062 19.5825C51.4062 18.9784 50.9166 18.4888 50.3125 18.4888C49.7084 18.4888 49.2188 18.9784 49.2188 19.5825C49.2188 20.1866 49.7084 20.6763 50.3125 20.6763Z" fill="black"/>
<path d="M56.875 20.6763C57.4791 20.6763 57.9688 20.1866 57.9688 19.5825C57.9688 18.9784 57.4791 18.4888 56.875 18.4888C56.2709 18.4888 55.7812 18.9784 55.7812 19.5825C55.7812 20.1866 56.2709 20.6763 56.875 20.6763Z" fill="black"/>
<path d="M50.3125 26.145H54.6875C56.4966 26.145 57.9688 24.6728 57.9688 22.8638H55.7812C55.7812 23.4664 55.2902 23.9575 54.6875 23.9575H50.3125V26.145Z" fill="black"/>
<path d="M14.2188 26.145C14.8228 26.145 15.3125 25.6553 15.3125 25.0513C15.3125 24.4472 14.8228 23.9575 14.2188 23.9575C13.6147 23.9575 13.125 24.4472 13.125 25.0513C13.125 25.6553 13.6147 26.145 14.2188 26.145Z" fill="black"/>
<path d="M20.7812 26.145C21.3853 26.145 21.875 25.6553 21.875 25.0513C21.875 24.4472 21.3853 23.9575 20.7812 23.9575C20.1772 23.9575 19.6875 24.4472 19.6875 25.0513C19.6875 25.6553 20.1772 26.145 20.7812 26.145Z" fill="black"/>
<path d="M15.3125 30.52H19.6875C21.4966 30.52 22.9688 29.0478 22.9688 27.2388H20.7812C20.7812 27.8414 20.2902 28.3325 19.6875 28.3325H15.3125V30.52Z" fill="black"/>
<path d="M68.9062 45.8281C68.9062 43.0697 68.1045 40.4775 66.7188 38.2769V14.1138C66.7188 6.87641 60.8311 0.988754 53.5937 0.988754C46.3564 0.988754 40.4687 6.87641 40.4687 14.1138V19.6777C40.062 19.6177 39.6516 19.5859 39.2405 19.5825H30.7595C30.7016 19.5825 30.6469 19.5902 30.5889 19.5913C30.6053 19.3452 30.625 19.0991 30.625 18.853C30.625 12.6208 25.5544 7.55125 19.3233 7.55125H17.3305C15.8629 7.54626 14.4232 7.95257 13.1747 8.72411C11.9263 9.49565 10.919 10.6015 10.267 11.9164L10.1872 12.075C8.51965 12.5356 7.04875 13.5294 5.99921 14.9046C4.94967 16.2798 4.37921 17.9608 4.375 19.6908V20.5559C4.375 21.6705 4.62437 22.7686 5.07828 23.7825C4.62067 24.4856 4.37641 25.3061 4.375 26.145C4.375 28.5578 6.33718 30.52 8.75 30.52H8.84953C9.06794 31.798 9.65928 32.9829 10.5492 33.9258C11.4392 34.8687 12.588 35.5274 13.8512 35.8192L13.4006 37.17C9.97894 37.6408 6.84473 39.3384 4.58096 41.947C2.31718 44.5556 1.07795 47.8977 1.09375 51.3516V60.0523H18.6495C18.6133 60.4812 18.5947 60.9115 18.5937 61.3419V68.8013H51.4062V61.3419C51.4059 59.0028 50.8827 56.6934 49.875 54.5825H68.9062V45.8281ZM42.6562 14.1138C42.6562 8.08282 47.5628 3.17625 53.5937 3.17625C59.6247 3.17625 64.5312 8.08282 64.5312 14.1138V35.5906C62.5245 33.6587 59.9919 32.3624 57.2513 31.8642C57.0582 31.8293 56.8781 31.743 56.7299 31.6144C56.5818 31.4859 56.4709 31.3198 56.4091 31.1336L56.198 30.5003C59.6225 30.2827 62.3437 27.4356 62.3437 23.9575V10.8325H60.1562V14.1138H59.0625C57.2534 14.1138 55.7812 12.6416 55.7812 10.8325H53.5937C53.5937 12.0684 54.0214 13.1972 54.7159 14.1138H54.6875C52.8784 14.1138 51.4062 12.6416 51.4062 10.8325H49.2187C49.2166 11.5089 49.0052 12.168 48.6135 12.7195C48.2219 13.2709 47.6692 13.6877 47.0312 13.9125V10.8325H44.8437V21.5808C44.1814 21.0404 43.4447 20.5984 42.6562 20.2683V14.1138ZM43.75 33.8013C44.9564 33.8013 45.9375 34.7823 45.9375 35.9888C45.9375 37.1952 44.9564 38.1763 43.75 38.1763V33.8013ZM47.0312 23.9575V16.1908C48.3476 15.9151 49.5159 15.1635 50.3125 14.0798C51.31 15.4197 52.8927 16.3013 54.6875 16.3013H60.1562V23.9575C60.1562 26.3703 58.1941 28.3325 55.7812 28.3325H51.4062C50.7301 28.3312 50.0635 28.1732 49.4586 27.8709C48.8538 27.5686 48.3273 27.1302 47.9205 26.5902C47.7434 25.764 47.4484 24.9676 47.0444 24.2255C47.04 24.1369 47.0312 24.0483 47.0312 23.9575ZM47.7498 31.8631C47.6787 31.8763 47.6087 31.897 47.5377 31.9102L47.8592 30.6217C47.9445 30.2805 48.008 29.9327 48.0528 29.5838C48.3427 29.7566 48.6423 29.9108 48.9562 30.0377L48.5909 31.1325C48.5292 31.3185 48.4185 31.4845 48.2705 31.6131C48.1225 31.7416 47.9427 31.828 47.7498 31.8631ZM50.6658 31.8248L51.1066 30.5014C51.2072 30.5058 51.3056 30.52 51.4062 30.52H53.8989L54.3342 31.8248C54.658 32.7961 55.4236 33.5234 56.3719 33.857C56.0241 35.7055 54.3955 37.0825 52.5 37.0825C50.6045 37.0825 48.9759 35.7044 48.6281 33.857C49.5764 33.5245 50.342 32.7961 50.6658 31.8248ZM39.2405 21.77C40.2577 21.7715 41.2612 22.0045 42.1751 22.4512C43.089 22.898 43.8892 23.5468 44.5152 24.3486C45.1412 25.1504 45.5765 26.0841 45.7883 27.079C46 28.074 45.9826 29.104 45.7373 30.0913L45.2834 31.9058C44.7942 31.7164 44.2746 31.6175 43.75 31.6138V29.4263H42.6562C41.0616 29.4263 39.375 27.7397 39.375 26.145H37.1875C37.1875 28.5873 39.1923 30.9127 41.5625 31.4814V39.27C41.5625 41.6828 39.6003 43.645 37.1875 43.645H32.8125C30.3997 43.645 28.4375 41.6828 28.4375 39.27V31.22C28.4375 30.7409 28.6234 30.2903 28.9625 29.9513C29.1791 29.7347 29.4437 29.5881 29.7292 29.505C30.7683 30.7573 32.3116 31.6138 33.9062 31.6138V29.4263C32.3116 29.4263 30.625 27.7397 30.625 26.145H28.4375C28.4375 26.6263 28.5206 27.102 28.6639 27.5625C27.9472 27.8682 27.3362 28.378 26.907 29.0283C26.4778 29.6786 26.2493 30.4408 26.25 31.22V31.6138C25.7086 31.6138 25.1956 31.7253 24.7166 31.9058L24.2627 30.0902C24.0176 29.103 24.0003 28.0731 24.2122 27.0783C24.424 26.0835 24.8594 25.1499 25.4854 24.3483C26.1113 23.5466 26.9115 22.8979 27.8253 22.4512C28.739 22.0045 29.7424 21.7716 30.7595 21.77H39.2405ZM31.2692 48.1502L33.6164 51.2805L31.4464 53.993L30.8711 48.2409C31.0023 48.2059 31.1369 48.1808 31.2692 48.1502ZM35 49.4791L32.9372 46.7294L33.2358 45.8336H36.7631L37.0617 46.7294L35 49.4791ZM38.7308 48.1502C38.8631 48.1808 38.9977 48.2059 39.1289 48.2409L38.5536 53.993L36.3836 51.2805L38.7308 48.1502ZM18.8989 35.9888L19.5847 38.045L17.5 41.5198L15.4153 38.045L16.1011 35.9888H18.8989ZM26.25 38.1763C25.0436 38.1763 24.0625 37.1952 24.0625 35.9888C24.0625 34.7823 25.0436 33.8013 26.25 33.8013V38.1763ZM22.0894 37.2728C21.9242 37.2433 21.7645 37.1952 21.5994 37.1711L21.1498 35.8225C21.4102 35.7634 21.665 35.6847 21.9155 35.5939C21.9023 35.7263 21.875 35.8542 21.875 35.9888C21.875 36.4383 21.9625 36.8638 22.0894 37.2728ZM15.9545 43.1955L14.0569 44.1448C13.5305 42.7473 13.1183 41.3094 12.8242 39.8453L12.7597 39.5205C13.0528 39.4559 13.3514 39.4023 13.6533 39.3586L15.9545 43.1955ZM17.5 44.8678L20.0845 46.1595C19.3612 47.7111 18.496 49.1925 17.5 50.5849C16.5042 49.1924 15.6391 47.711 14.9155 46.1595L17.5 44.8678ZM20.9431 44.1438L19.0455 43.1944L21.3391 39.3717C21.6409 39.4155 21.945 39.4516 22.2414 39.5172L22.1758 39.8431C21.8829 41.3079 21.4706 42.7462 20.9431 44.1438ZM6.5625 19.6908C6.56569 18.3718 7.0241 17.0943 7.86028 16.0742C8.69645 15.0541 9.85913 14.3539 11.1519 14.0919L11.6758 13.9869L12.2227 12.8931C12.694 11.9425 13.4223 11.143 14.3249 10.5853C15.2275 10.0276 16.2683 9.73392 17.3294 9.73766H19.3222C24.348 9.73766 28.4364 13.8261 28.4364 18.8519C28.4364 19.2073 28.408 19.5639 28.3664 19.9172C27.6239 20.1253 26.9119 20.4302 26.2489 20.8239V16.3002H24.0614V19.5814H22.9677C21.1586 19.5814 19.6864 18.1092 19.6864 16.3002H17.4989C17.4989 17.5361 17.9266 18.6648 18.6211 19.5814H18.5937C16.7847 19.5814 15.3125 18.1092 15.3125 16.3002H13.125C13.1228 16.9765 12.9114 17.6357 12.5198 18.1871C12.1281 18.7386 11.5754 19.1553 10.9375 19.3802V16.3002H8.75V21.7689C8.05656 21.7689 7.40906 21.9461 6.82609 22.2338C6.65471 21.6908 6.56586 21.1253 6.5625 20.5559V19.6908ZM6.5625 26.145C6.5625 24.9386 7.54359 23.9575 8.75 23.9575V28.3325C7.54359 28.3325 6.5625 27.3514 6.5625 26.145ZM10.9375 29.4263V21.6595C12.2538 21.3838 13.4222 20.6322 14.2187 19.5486C15.2162 20.8884 16.7989 21.77 18.5937 21.77H24.0625V22.6461C23.1214 23.7212 22.4549 25.0084 22.1202 26.3974C21.7855 27.7865 21.7926 29.236 22.1408 30.6217L22.6406 32.62C21.8408 33.3719 20.7863 33.7934 19.6886 33.8002H15.3136C14.1536 33.7993 13.0414 33.3383 12.221 32.5182C11.4005 31.6982 10.9389 30.5862 10.9375 29.4263ZM9.84375 57.8638V48.02H7.65625V57.8638H3.28125V51.3516C3.28125 46.3345 6.27922 42.035 10.6619 40.1866L10.6794 40.2741C11.6207 44.9565 13.6666 49.3464 16.6469 53.0786L17.5 54.1461L18.3542 53.0786C21.334 49.3461 23.3799 44.9563 24.3217 40.2741L24.3348 40.2063C25.1497 40.553 25.9262 40.9861 26.6514 41.5078C27.007 42.4821 27.5877 43.3586 28.3463 44.0658C29.1049 44.7731 30.0198 45.2911 31.0166 45.5777L30.882 45.9823C24.8784 47.3309 20.3164 52.0253 18.9962 57.8659H9.84375V57.8638ZM49.2187 66.6138H44.8437V57.8638H42.6562V66.6138H27.3437V57.8638H25.1562V66.6138H20.7812V61.3419C20.7812 55.918 23.9892 51.1503 28.7481 48.9978L29.8036 59.547L33.9062 54.4195V62.2388H36.0937V54.4195L40.1964 59.5481L41.2519 48.9989C43.6263 50.0721 45.6408 51.8074 47.0538 53.9966C48.4669 56.1859 49.2186 58.7362 49.2187 61.3419V66.6138ZM66.7188 52.395H62.3437V41.4575H60.1562V52.395H48.6117C46.3674 49.1385 42.9777 46.8478 39.1191 45.9802L38.9845 45.5755C40.1743 45.2341 41.2436 44.5638 42.0692 43.6416C42.8949 42.7194 43.4433 41.5828 43.6516 40.3627H43.75C45.7417 40.3627 47.4075 39.0173 47.9347 37.193C49.07 38.4628 50.7041 39.2689 52.5 39.2689C55.382 39.2689 57.8605 37.2159 58.473 34.4356C60.8715 35.2251 62.9598 36.7513 64.4404 38.7968C65.9209 40.8424 66.7182 43.303 66.7188 45.8281V52.395Z" fill="black"/>
<path d="M38.2812 31.6138V29.4263C36.6866 29.4263 35 27.7397 35 26.145H32.8125C32.8125 28.957 35.4703 31.6138 38.2812 31.6138Z" fill="black"/>
</svg>