<svg width="70" height="70" viewBox="0 0 70 70" fill="none" xmlns="http://www.w3.org/2000/svg">
<path d="M42.6562 3.28125H7.65625C5.24 3.28125 3.28125 5.24 3.28125 7.65625V62.3438C3.28125 64.76 5.24 66.7188 7.65625 66.7188H42.6562C45.0725 66.7188 47.0312 64.76 47.0312 62.3438V7.65625C47.0312 5.24 45.0725 3.28125 42.6562 3.28125Z" fill="#006DF0"/>
<path d="M41.5625 63.4375H8.75C8.17037 63.4358 7.61498 63.2047 7.20512 62.7949C6.79526 62.385 6.56423 61.8296 6.5625 61.25V8.75C6.56423 8.17037 6.79526 7.61497 7.20512 7.20511C7.61498 6.79525 8.17037 6.56423 8.75 6.5625H17.4234C17.7831 6.56132 18.1374 6.64969 18.4543 6.81963C18.7713 6.98957 19.041 7.23574 19.2391 7.53593L20.1359 8.87031C20.334 9.1705 20.6037 9.41668 20.9207 9.58662C21.2376 9.75656 21.5919 9.84492 21.9516 9.84375H28.3609C28.7206 9.84492 29.0749 9.75656 29.3918 9.58662C29.7088 9.41668 29.9785 9.1705 30.1766 8.87031L31.0734 7.53593C31.2715 7.23574 31.5412 6.98957 31.8582 6.81963C32.1751 6.64969 32.5294 6.56132 32.8891 6.5625H41.5625C42.1421 6.56423 42.6975 6.79525 43.1074 7.20511C43.5172 7.61497 43.7483 8.17037 43.75 8.75V61.25C43.7483 61.8296 43.5172 62.385 43.1074 62.7949C42.6975 63.2047 42.1421 63.4358 41.5625 63.4375Z" fill="#FFEB99"/>
<path d="M41.5625 6.5625H39.375V32.8125C39.3545 39.7681 36.5823 46.433 31.6639 51.3514C26.7455 56.2698 20.0806 59.042 13.125 59.0625H6.5625V61.25C6.56423 61.8296 6.79526 62.385 7.20512 62.7949C7.61498 63.2047 8.17037 63.4358 8.75 63.4375H41.5625C42.1421 63.4358 42.6975 63.2047 43.1074 62.7949C43.5172 62.385 43.7483 61.8296 43.75 61.25V8.75C43.7483 8.17037 43.5172 7.61498 43.1074 7.20512C42.6975 6.79526 42.1421 6.56423 41.5625 6.5625Z" fill="#FFE477"/>
<path d="M66.7187 52.5V66.7187H52.5L47.0312 60.6922L46.6156 60.2328L58.9859 47.8625L60.5281 46.3094L66.7187 52.5Z" fill="#006DF0"/>
<path d="M33.9062 27.3438H16.4062C15.8261 27.3438 15.2697 27.5742 14.8595 27.9845C14.4492 28.3947 14.2188 28.9511 14.2188 29.5312C14.2188 30.1114 14.4492 30.6678 14.8595 31.078C15.2697 31.4883 15.8261 31.7188 16.4062 31.7188H33.9062C34.4864 31.7188 35.0428 31.4883 35.453 31.078C35.8633 30.6678 36.0938 30.1114 36.0938 29.5312C36.0938 28.9511 35.8633 28.3947 35.453 27.9845C35.0428 27.5742 34.4864 27.3438 33.9062 27.3438Z" fill="#FFA733"/>
<path d="M25.1562 18.5938C22.8356 18.5938 20.61 19.5156 18.9691 21.1566C17.3281 22.7975 16.4063 25.0231 16.4062 27.3438H33.9062C33.9062 25.0231 32.9844 22.7975 31.3434 21.1566C29.7025 19.5156 27.4769 18.5938 25.1562 18.5938ZM18.5938 36.0938H31.7188L33.9062 31.7188H16.4062L18.5938 36.0938Z" fill="#FFC477"/>
<path d="M25.1562 18.5938C26.3644 18.5938 27.3438 17.6144 27.3438 16.4062C27.3438 15.1981 26.3644 14.2188 25.1562 14.2188C23.9481 14.2188 22.9688 15.1981 22.9688 16.4062C22.9688 17.6144 23.9481 18.5938 25.1562 18.5938Z" fill="#FF9811"/>
<path d="M41.9705 30.8438C41.5604 31.254 41.3301 31.8103 41.3301 32.3903C41.3301 32.9704 41.5604 33.5267 41.9705 33.9369C41.5602 33.5266 41.0037 33.296 40.4234 33.296C39.8431 33.296 39.2866 33.5266 38.8763 33.9369C38.466 34.3472 38.2355 34.9037 38.2355 35.484C38.2355 36.0643 38.466 36.6208 38.8763 37.0311C38.6745 36.8222 38.4331 36.6555 38.1663 36.5409C37.8994 36.4262 37.6123 36.3659 37.3219 36.3634C37.0314 36.3608 36.7434 36.4162 36.4745 36.5262C36.2057 36.6362 35.9615 36.7986 35.7561 37.004C35.5507 37.2094 35.3882 37.4536 35.2783 37.7224C35.1683 37.9913 35.1129 38.2793 35.1154 38.5698C35.118 38.8602 35.1783 39.1473 35.293 39.4142C35.4076 39.681 35.5743 39.9224 35.7832 40.1242L30.3691 34.7123C30.0744 34.4151 29.7003 34.2091 29.2916 34.119C28.8828 34.0289 28.4568 34.0585 28.0644 34.2042C27.6721 34.35 27.33 34.6057 27.0792 34.9408C26.8284 35.2759 26.6796 35.6762 26.6504 36.0938C26.6244 36.4074 26.6669 36.7229 26.7749 37.0184C26.8829 37.314 27.0539 37.5825 27.276 37.8055L39.6496 50.1802L34.2344 49.2767C33.7612 49.1978 33.2764 49.2237 32.8143 49.3525C32.3521 49.4812 31.9238 49.7098 31.5596 50.022C31.1953 50.3342 30.904 50.7225 30.706 51.1596C30.5081 51.5966 30.4084 52.0717 30.414 52.5514L30.4227 53.317L44.5879 56.1608C45.4339 56.3303 46.211 56.7462 46.8213 57.3562L48.1568 58.6928L58.9849 47.8647L57.7413 46.6222C57.3968 46.2775 57.1238 45.8682 56.938 45.4177C56.7522 44.9672 56.6572 44.4845 56.6585 43.9972C56.66 43.5099 56.5652 43.027 56.3793 42.5765C56.1935 42.126 55.9204 41.7167 55.5757 41.3722L48.1568 33.9533L47.0313 32.8125L45.0626 30.8438C44.6524 30.434 44.0963 30.2038 43.5165 30.2038C42.9368 30.2038 42.3807 30.434 41.9705 30.8438Z" fill="#FFBCAB"/>
<path d="M24.0625 7.65625H26.25C26.5401 7.65625 26.8183 7.54102 27.0234 7.3359C27.2285 7.13078 27.3438 6.85258 27.3438 6.5625C27.3438 6.27242 27.2285 5.99422 27.0234 5.7891C26.8183 5.58398 26.5401 5.46875 26.25 5.46875H24.0625C23.7724 5.46875 23.4942 5.58398 23.2891 5.7891C23.084 5.99422 22.9688 6.27242 22.9688 6.5625C22.9688 6.85258 23.084 7.13078 23.2891 7.3359C23.4942 7.54102 23.7724 7.65625 24.0625 7.65625ZM15.3125 49.2188H28.4375C28.7276 49.2188 29.0058 49.1035 29.2109 48.8984C29.416 48.6933 29.5312 48.4151 29.5312 48.125C29.5312 47.8349 29.416 47.5567 29.2109 47.3516C29.0058 47.1465 28.7276 47.0312 28.4375 47.0312H15.3125C15.0224 47.0312 14.7442 47.1465 14.5391 47.3516C14.334 47.5567 14.2188 47.8349 14.2188 48.125C14.2188 48.4151 14.334 48.6933 14.5391 48.8984C14.7442 49.1035 15.0224 49.2188 15.3125 49.2188ZM15.3125 44.8438H26.25C26.5401 44.8438 26.8183 44.7285 27.0234 44.5234C27.2285 44.3183 27.3438 44.0401 27.3438 43.75C27.3438 43.4599 27.2285 43.1817 27.0234 42.9766C26.8183 42.7715 26.5401 42.6562 26.25 42.6562H15.3125C15.0224 42.6562 14.7442 42.7715 14.5391 42.9766C14.334 43.1817 14.2188 43.4599 14.2188 43.75C14.2188 44.0401 14.334 44.3183 14.5391 44.5234C14.7442 44.7285 15.0224 44.8438 15.3125 44.8438ZM15.3125 53.5938H26.25C26.5401 53.5938 26.8183 53.4785 27.0234 53.2734C27.2285 53.0683 27.3438 52.7901 27.3438 52.5C27.3438 52.2099 27.2285 51.9317 27.0234 51.7266C26.8183 51.5215 26.5401 51.4062 26.25 51.4062H15.3125C15.0224 51.4062 14.7442 51.5215 14.5391 51.7266C14.334 51.9317 14.2188 52.2099 14.2188 52.5C14.2188 52.7901 14.334 53.0683 14.5391 53.2734C14.7442 53.4785 15.0224 53.5938 15.3125 53.5938ZM15.3125 57.9688H30.625C30.9151 57.9688 31.1933 57.8535 31.3984 57.6484C31.6035 57.4433 31.7188 57.1651 31.7188 56.875C31.7188 56.5849 31.6035 56.3067 31.3984 56.1016C31.1933 55.8965 30.9151 55.7812 30.625 55.7812H15.3125C15.0224 55.7812 14.7442 55.8965 14.5391 56.1016C14.334 56.3067 14.2188 56.5849 14.2188 56.875C14.2188 57.1651 14.334 57.4433 14.5391 57.6484C14.7442 57.8535 15.0224 57.9688 15.3125 57.9688Z" fill="#231F20"/>
<path d="M67.4953 51.7234L61.3047 45.5438C61.0998 45.34 60.8225 45.2257 60.5336 45.2257C60.2446 45.2257 59.9674 45.34 59.7625 45.5438L58.9859 46.3094L58.5156 45.8391C58.2722 45.5969 58.0791 45.3088 57.9477 44.9915C57.8163 44.6742 57.7491 44.334 57.75 43.9906C57.7538 43.3591 57.632 42.7332 57.3917 42.1492C57.1513 41.5652 56.7972 41.0349 56.35 40.5891L48.125 32.3641V7.65625C48.125 6.20585 47.5488 4.81485 46.5232 3.78926C45.4977 2.76367 44.1067 2.1875 42.6562 2.1875H7.65625C6.20585 2.1875 4.81485 2.76367 3.78926 3.78926C2.76367 4.81485 2.1875 6.20585 2.1875 7.65625V62.3438C2.1875 63.7942 2.76367 65.1852 3.78926 66.2107C4.81485 67.2363 6.20585 67.8125 7.65625 67.8125H42.6562C43.9216 67.8112 45.1473 67.3712 46.1246 66.5675C47.1018 65.7637 47.7702 64.646 48.0156 63.4047L51.6906 67.4516C51.7929 67.5649 51.9177 67.6555 52.0571 67.7177C52.1965 67.7798 52.3474 67.8121 52.5 67.8125H66.7188C67.0088 67.8125 67.287 67.6973 67.4921 67.4921C67.6973 67.287 67.8125 67.0088 67.8125 66.7188V52.5C67.8103 52.21 67.6968 51.932 67.4953 51.7234ZM45.8063 60.9656L45.9375 61.1188V62.3438C45.9349 63.2132 45.5884 64.0463 44.9736 64.6611C44.3588 65.2759 43.5257 65.6224 42.6562 65.625H7.65625C6.78681 65.6224 5.95372 65.2759 5.33892 64.6611C4.72413 64.0463 4.3776 63.2132 4.375 62.3438V7.65625C4.3776 6.78681 4.72413 5.95372 5.33892 5.33892C5.95372 4.72413 6.78681 4.3776 7.65625 4.375H42.6562C43.5257 4.3776 44.3588 4.72413 44.9736 5.33892C45.5884 5.95372 45.9349 6.78681 45.9375 7.65625V30.1766L45.8391 30.0672C45.5473 29.7931 45.2106 29.5712 44.8438 29.4109V8.75C44.8412 7.88056 44.4946 7.04747 43.8798 6.43267C43.265 5.81788 42.4319 5.47135 41.5625 5.46875H32.8891C32.3502 5.46692 31.8193 5.59887 31.344 5.85276C30.8686 6.10665 30.4638 6.47454 30.1656 6.92344L29.2688 8.26875C29.1668 8.41559 29.0312 8.5359 28.8733 8.61962C28.7154 8.70334 28.5397 8.74805 28.3609 8.75H21.9516C21.7716 8.7483 21.5947 8.70256 21.4365 8.61676C21.2782 8.53097 21.1434 8.40773 21.0437 8.25781L20.1469 6.93438C19.851 6.48248 19.4469 6.11169 18.9713 5.85573C18.4956 5.59976 17.9636 5.46674 17.4234 5.46875H8.75C7.88056 5.47135 7.04747 5.81788 6.43267 6.43267C5.81788 7.04747 5.47135 7.88056 5.46875 8.75V61.25C5.47135 62.1194 5.81788 62.9525 6.43267 63.5673C7.04747 64.1821 7.88056 64.5287 8.75 64.5312H41.5625C42.4319 64.5287 43.265 64.1821 43.8798 63.5673C44.4946 62.9525 44.8412 62.1194 44.8438 61.25V57.3562C45.2955 57.5214 45.7059 57.7826 46.0469 58.1219L46.6156 58.6906L45.8391 59.4562C45.6407 59.6554 45.5266 59.9233 45.5205 60.2044C45.5144 60.4854 45.6167 60.758 45.8063 60.9656ZM16.4062 30.625C16.1162 30.625 15.838 30.5098 15.6329 30.3046C15.4277 30.0995 15.3125 29.8213 15.3125 29.5312C15.3125 29.2412 15.4277 28.963 15.6329 28.7579C15.838 28.5527 16.1162 28.4375 16.4062 28.4375H33.9062C34.1963 28.4375 34.4745 28.5527 34.6796 28.7579C34.8848 28.963 35 29.2412 35 29.5312C35 29.8213 34.8848 30.0995 34.6796 30.3046C34.4745 30.5098 34.1963 30.625 33.9062 30.625H16.4062ZM32.1344 32.8125L31.4344 34.2234L31.1391 33.9391C30.5238 33.3246 29.6898 32.9795 28.8203 32.9795C27.9508 32.9795 27.1168 33.3246 26.5016 33.9391C26.1987 34.2439 25.9574 34.604 25.7906 35H19.2719L18.1781 32.8125H32.1344ZM25.1562 19.6875C26.9968 19.69 28.7752 20.3542 30.1667 21.559C31.5582 22.7638 32.4701 24.4287 32.7359 26.25H17.5766C17.8424 24.4287 18.7543 22.7638 20.1458 21.559C21.5373 20.3542 23.3157 19.69 25.1562 19.6875ZM24.0625 16.4062C24.0625 16.1899 24.1266 15.9785 24.2468 15.7986C24.367 15.6187 24.5378 15.4785 24.7377 15.3958C24.9375 15.313 25.1575 15.2913 25.3696 15.3335C25.5818 15.3757 25.7767 15.4799 25.9296 15.6329C26.0826 15.7858 26.1868 15.9807 26.229 16.1929C26.2712 16.405 26.2495 16.625 26.1667 16.8248C26.084 17.0247 25.9438 17.1955 25.7639 17.3157C25.584 17.4359 25.3726 17.5 25.1562 17.5C24.8662 17.5 24.588 17.3848 24.3829 17.1796C24.1777 16.9745 24.0625 16.6963 24.0625 16.4062ZM34.6281 32.725C35.3253 32.5699 35.9525 32.1906 36.4137 31.6453C36.875 31.0999 37.1448 30.4184 37.1821 29.7052C37.2193 28.9919 37.0218 28.286 36.6198 27.6956C36.2178 27.1052 35.6335 26.6628 34.9562 26.4359C34.7732 24.4947 34.0188 22.6513 32.7885 21.1387C31.5581 19.6261 29.907 18.5121 28.0437 17.9375C28.3135 17.4377 28.449 16.8763 28.4367 16.3085C28.4245 15.7406 28.2651 15.1856 27.9741 14.6978C27.6831 14.21 27.2704 13.8061 26.7765 13.5257C26.2825 13.2452 25.7243 13.0977 25.1562 13.0977C24.5882 13.0977 24.03 13.2452 23.536 13.5257C23.0421 13.8061 22.6294 14.21 22.3384 14.6978C22.0474 15.1856 21.888 15.7406 21.8758 16.3085C21.8635 16.8763 21.999 17.4377 22.2688 17.9375C20.4055 18.5121 18.7544 19.6261 17.524 21.1387C16.2937 22.6513 15.5393 24.4947 15.3562 26.4359C14.679 26.6628 14.0947 27.1052 13.6927 27.6956C13.2907 28.286 13.0932 28.9919 13.1305 29.7052C13.1677 30.4184 13.4375 31.0999 13.8988 31.6453C14.36 32.1906 14.9872 32.5699 15.6844 32.725L17.6203 36.5859C17.7088 36.7682 17.8474 36.9215 18.0197 37.028C18.1921 37.1345 18.3912 37.1898 18.5938 37.1875H25.6922C25.8399 37.7116 26.1184 38.1896 26.5016 38.5766L36.4656 48.5406L34.4094 48.2016C33.779 48.0964 33.1332 48.1308 32.5175 48.3024C31.9019 48.4741 31.3315 48.7787 30.8464 49.1949C30.3614 49.6111 29.9736 50.1287 29.7105 50.7111C29.4473 51.2935 29.3152 51.9266 29.3234 52.5656V53.3312C29.3289 53.5812 29.4198 53.8217 29.581 54.0127C29.7422 54.2037 29.964 54.3338 30.2094 54.3813L42.6562 56.8859V61.25C42.6562 61.5401 42.541 61.8183 42.3359 62.0234C42.1308 62.2285 41.8526 62.3438 41.5625 62.3438H8.75C8.45992 62.3438 8.18172 62.2285 7.9766 62.0234C7.77148 61.8183 7.65625 61.5401 7.65625 61.25V8.75C7.65625 8.45992 7.77148 8.18172 7.9766 7.9766C8.18172 7.77148 8.45992 7.65625 8.75 7.65625H17.4234C17.6034 7.65795 17.7803 7.70369 17.9385 7.78949C18.0968 7.87528 18.2316 7.99852 18.3313 8.14844L19.2281 9.47187C19.524 9.92377 19.9281 10.2946 20.4037 10.5505C20.8794 10.8065 21.4114 10.9395 21.9516 10.9375H28.3609C28.8998 10.9393 29.4307 10.8074 29.906 10.5535C30.3814 10.2996 30.7862 9.93171 31.0844 9.48281L31.9812 8.1375C32.0832 7.99066 32.2188 7.87035 32.3767 7.78663C32.5346 7.70291 32.7103 7.6582 32.8891 7.65625H41.5625C41.8526 7.65625 42.1308 7.77148 42.3359 7.9766C42.541 8.18172 42.6562 8.45992 42.6562 8.75V29.2688C42.1066 29.3947 41.6029 29.6711 41.2016 30.0672C40.6286 30.6429 40.2896 31.4106 40.25 32.2219C39.4405 32.2575 38.6737 32.595 38.1008 33.168C37.5278 33.7409 37.1903 34.5077 37.1547 35.3172C36.5647 35.3389 35.9924 35.5242 35.5018 35.8526C35.0111 36.181 34.6215 36.6394 34.3766 37.1766L33.0641 35.8531L34.6281 32.725ZM47.5891 56.5797C46.8282 55.8152 45.8575 55.2937 44.8 55.0812L31.5109 52.4125C31.5228 52.1129 31.5971 51.8191 31.7289 51.5498C31.8607 51.2805 32.0472 51.0416 32.2766 50.8484C32.5197 50.6412 32.8054 50.4897 33.1134 50.4047C33.4214 50.3196 33.7443 50.3031 34.0594 50.3563L39.4734 51.2641C39.6157 51.2875 39.7612 51.2825 39.9015 51.2495C40.0418 51.2165 40.1742 51.1561 40.2911 51.0717C40.408 50.9873 40.5071 50.8807 40.5826 50.7579C40.6581 50.6351 40.7087 50.4986 40.7313 50.3563C40.7568 50.2051 40.7485 50.0502 40.7069 49.9026C40.6653 49.7551 40.5914 49.6186 40.4906 49.5031C40.4797 49.4703 28.0547 37.0344 28.0547 37.0344C27.8487 36.8299 27.7324 36.5519 27.7314 36.2617C27.7304 35.9714 27.8447 35.6927 28.0492 35.4867C28.2537 35.2808 28.5317 35.1645 28.8219 35.1635C29.1122 35.1624 29.3909 35.2767 29.5969 35.4812L35.0109 40.8953L36.5531 42.4484C36.7605 42.6518 37.0393 42.7657 37.3297 42.7657C37.6201 42.7657 37.8989 42.6518 38.1063 42.4484C38.3112 42.2419 38.4262 41.9628 38.4262 41.6719C38.4262 41.381 38.3112 41.1018 38.1063 40.8953L36.5531 39.3531C36.3498 39.1458 36.2359 38.867 36.2359 38.5766C36.2359 38.2862 36.3498 38.0073 36.5531 37.8C36.7622 37.6 37.0404 37.4883 37.3297 37.4883C37.619 37.4883 37.8972 37.6 38.1063 37.8L39.6484 39.3531C39.8564 39.5555 40.1348 39.6692 40.425 39.6703C40.7148 39.6672 40.9924 39.5537 41.2016 39.3531C41.4065 39.1466 41.5215 38.8675 41.5215 38.5766C41.5215 38.2856 41.4065 38.0065 41.2016 37.8L39.6484 36.2578C39.4447 36.0529 39.3304 35.7757 39.3304 35.4867C39.3304 35.1978 39.4447 34.9206 39.6484 34.7156C39.8549 34.5107 40.1341 34.3957 40.425 34.3957C40.7159 34.3957 40.9951 34.5107 41.2016 34.7156L42.7438 36.2578C42.953 36.437 43.2221 36.5306 43.4974 36.52C43.7727 36.5094 44.0338 36.3953 44.2286 36.2005C44.4234 36.0057 44.5375 35.7445 44.5481 35.4693C44.5588 35.194 44.4651 34.9249 44.2859 34.7156L42.7438 33.1625C42.54 32.9576 42.4257 32.6804 42.4257 32.3914C42.4257 32.1025 42.54 31.8252 42.7438 31.6203C42.9506 31.4202 43.2271 31.3084 43.5148 31.3084C43.8026 31.3084 44.0791 31.4202 44.2859 31.6203L46.2547 33.5891L54.8078 42.1313C55.2922 42.6245 55.5633 43.2884 55.5625 43.9797C55.5618 45.2571 56.0649 46.4833 56.9625 47.3922L57.4328 47.8625L48.1578 57.1375L47.5891 56.5797ZM65.625 65.625H52.9812L48.125 60.2656L60.5281 47.8625L65.625 52.9484V65.625Z" fill="#231F20"/>
<path d="M25.1562 22.9688C25.8359 22.9661 26.5067 23.1231 27.1146 23.427C27.7225 23.731 28.2506 24.1734 28.6563 24.7188C28.7424 24.8337 28.8504 24.9305 28.974 25.0036C29.0976 25.0768 29.2344 25.1249 29.3766 25.1453C29.5188 25.1656 29.6636 25.1577 29.8027 25.122C29.9418 25.0864 30.0726 25.0237 30.1875 24.9375C30.3024 24.8513 30.3992 24.7434 30.4724 24.6198C30.5456 24.4962 30.5937 24.3594 30.614 24.2172C30.6343 24.075 30.6264 23.9302 30.5908 23.7911C30.5551 23.6519 30.4924 23.5212 30.4062 23.4062C29.7929 22.5934 28.9999 21.9335 28.0891 21.4781C27.1783 21.0227 26.1745 20.7842 25.1562 20.7812C24.8662 20.7812 24.588 20.8965 24.3829 21.1016C24.1777 21.3067 24.0625 21.5849 24.0625 21.875C24.0625 22.1651 24.1777 22.4433 24.3829 22.6484C24.588 22.8535 24.8662 22.9688 25.1562 22.9688Z" fill="#231F20"/>
</svg>