<svg width="70" height="70" viewBox="0 0 70 70" fill="none" xmlns="http://www.w3.org/2000/svg">
<path d="M25.1562 66.7188C28.7806 66.7188 31.7188 63.7806 31.7188 60.1562C31.7188 56.5319 28.7806 53.5938 25.1562 53.5938C21.5319 53.5938 18.5938 56.5319 18.5938 60.1562C18.5938 63.7806 21.5319 66.7188 25.1562 66.7188Z" fill="#565D69"/>
<path d="M50.3125 66.7188C53.9369 66.7188 56.875 63.7806 56.875 60.1562C56.875 56.5319 53.9369 53.5938 50.3125 53.5938C46.6881 53.5938 43.75 56.5319 43.75 60.1562C43.75 63.7806 46.6881 66.7188 50.3125 66.7188Z" fill="#565D69"/>
<path d="M66.7188 18.3356C66.7188 18.5071 66.696 18.6777 66.651 18.8431L61.0356 39.4319C60.7832 40.3581 60.2331 41.1755 59.4701 41.7582C58.7072 42.3409 57.7738 42.6564 56.8138 42.6562H25.8344L18.6813 16.4063H64.7894C65.3011 16.4062 65.7918 16.6095 66.1537 16.9714C66.5155 17.3332 66.7188 17.8239 66.7188 18.3356Z" fill="#FFB657"/>
<path d="M57.9688 53.5938H19.6875C17.6569 53.5938 15.7095 52.7871 14.2737 51.3513C12.8379 49.9155 12.0312 47.9681 12.0312 45.9375C12.0312 43.9069 12.8379 41.9595 14.2737 40.5237C15.7095 39.0879 17.6569 38.2812 19.6875 38.2812H20.1053L11.7545 7.65625H5.46875C4.88859 7.65625 4.33219 7.42578 3.92195 7.01555C3.51172 6.60531 3.28125 6.04891 3.28125 5.46875C3.28125 4.88859 3.51172 4.33219 3.92195 3.92195C4.33219 3.51172 4.88859 3.28125 5.46875 3.28125H11.7545C12.7145 3.28105 13.6479 3.59662 14.4109 4.1793C15.1738 4.76198 15.7239 5.57942 15.9764 6.50563L25.8311 42.6562H19.6875C18.8173 42.6562 17.9827 43.002 17.3673 43.6173C16.752 44.2327 16.4062 45.0673 16.4062 45.9375C16.4062 46.8077 16.752 47.6423 17.3673 48.2577C17.9827 48.873 18.8173 49.2188 19.6875 49.2188H57.9688C58.5489 49.2188 59.1053 49.4492 59.5155 49.8595C59.9258 50.2697 60.1562 50.8261 60.1562 51.4062C60.1562 51.9864 59.9258 52.5428 59.5155 52.953C59.1053 53.3633 58.5489 53.5938 57.9688 53.5938Z" fill="#E6F1FF"/>
<path d="M25.1562 62.3438C26.3644 62.3438 27.3438 61.3644 27.3438 60.1562C27.3438 58.9481 26.3644 57.9688 25.1562 57.9688C23.9481 57.9688 22.9688 58.9481 22.9688 60.1562C22.9688 61.3644 23.9481 62.3438 25.1562 62.3438Z" fill="#E6F1FF"/>
<path d="M50.3125 62.3438C51.5206 62.3438 52.5 61.3644 52.5 60.1562C52.5 58.9481 51.5206 57.9688 50.3125 57.9688C49.1044 57.9688 48.125 58.9481 48.125 60.1562C48.125 61.3644 49.1044 62.3438 50.3125 62.3438Z" fill="#E6F1FF"/>
<path d="M42.6562 29.5312C49.905 29.5312 55.7812 23.655 55.7812 16.4062C55.7812 9.15751 49.905 3.28125 42.6562 3.28125C35.4075 3.28125 29.5312 9.15751 29.5312 16.4062C29.5312 23.655 35.4075 29.5312 42.6562 29.5312Z" fill="#68B1FC"/>
<path d="M25.1562 56.875C24.5073 56.875 23.8729 57.0675 23.3333 57.428C22.7937 57.7885 22.3731 58.301 22.1248 58.9006C21.8764 59.5001 21.8114 60.1599 21.938 60.7964C22.0647 61.4329 22.3772 62.0176 22.8361 62.4765C23.2949 62.9353 23.8796 63.2479 24.5161 63.3745C25.1526 63.5011 25.8124 63.4361 26.4119 63.1877C27.0115 62.9394 27.524 62.5188 27.8845 61.9792C28.2451 61.4396 28.4375 60.8052 28.4375 60.1563C28.4366 59.2863 28.0907 58.4522 27.4755 57.837C26.8603 57.2219 26.0262 56.8759 25.1562 56.875ZM25.1562 61.25C24.9399 61.25 24.7285 61.1859 24.5486 61.0657C24.3687 60.9455 24.2285 60.7747 24.1458 60.5748C24.063 60.375 24.0413 60.155 24.0835 59.9429C24.1257 59.7307 24.2299 59.5358 24.3829 59.3829C24.5358 59.2299 24.7307 59.1257 24.9429 59.0835C25.155 59.0413 25.375 59.063 25.5748 59.1458C25.7747 59.2285 25.9455 59.3687 26.0657 59.5486C26.1859 59.7285 26.25 59.9399 26.25 60.1563C26.25 60.4463 26.1348 60.7245 25.9296 60.9297C25.7245 61.1348 25.4463 61.25 25.1562 61.25ZM50.3125 56.875C49.6635 56.875 49.0291 57.0675 48.4895 57.428C47.9499 57.7885 47.5294 58.301 47.281 58.9006C47.0327 59.5001 46.9677 60.1599 47.0943 60.7964C47.2209 61.4329 47.5334 62.0176 47.9923 62.4765C48.4512 62.9353 49.0359 63.2479 49.6724 63.3745C50.3089 63.5011 50.9686 63.4361 51.5682 63.1877C52.1677 62.9394 52.6802 62.5188 53.0408 61.9792C53.4013 61.4396 53.5938 60.8052 53.5938 60.1563C53.5929 59.2863 53.2469 58.4522 52.6317 57.837C52.0166 57.2219 51.1825 56.8759 50.3125 56.875ZM50.3125 61.25C50.0962 61.25 49.8847 61.1859 49.7048 61.0657C49.525 60.9455 49.3848 60.7747 49.302 60.5748C49.2192 60.375 49.1976 60.155 49.2398 59.9429C49.282 59.7307 49.3861 59.5358 49.5391 59.3829C49.6921 59.2299 49.887 59.1257 50.0991 59.0835C50.3113 59.0413 50.5312 59.063 50.7311 59.1458C50.9309 59.2285 51.1017 59.3687 51.2219 59.5486C51.3421 59.7285 51.4062 59.9399 51.4062 60.1563C51.4062 60.4463 51.291 60.7245 51.0859 60.9297C50.8808 61.1348 50.6026 61.25 50.3125 61.25ZM42.6562 30.625C45.4685 30.625 48.2175 29.7911 50.5558 28.2287C52.894 26.6663 54.7165 24.4457 55.7927 21.8475C56.8688 19.2494 57.1504 16.3905 56.6018 13.6323C56.0532 10.8741 54.699 8.34061 52.7104 6.35208C50.7219 4.36355 48.1884 3.00935 45.4302 2.46072C42.672 1.91208 39.8131 2.19366 37.215 3.26984C34.6168 4.34603 32.3962 6.16848 30.8338 8.50674C29.2714 10.845 28.4375 13.5941 28.4375 16.4063C28.4418 20.176 29.9413 23.79 32.6069 26.4556C35.2725 29.1212 38.8865 30.6207 42.6562 30.625ZM42.6562 4.37501C45.0358 4.37501 47.3619 5.08063 49.3405 6.40264C51.319 7.72465 52.8611 9.60367 53.7717 11.8021C54.6823 14.0005 54.9206 16.4196 54.4563 18.7534C53.9921 21.0873 52.8462 23.231 51.1636 24.9136C49.481 26.5962 47.3373 27.7421 45.0034 28.2063C42.6696 28.6706 40.2505 28.4323 38.0521 27.5217C35.8537 26.6111 33.9746 25.069 32.6526 23.0905C31.3306 21.1119 30.625 18.7858 30.625 16.4063C30.6285 13.2164 31.8972 10.1583 34.1527 7.90272C36.4083 5.64717 39.4664 4.37848 42.6562 4.37501ZM64.7894 15.3125H60.1562C59.8662 15.3125 59.588 15.4277 59.3829 15.6329C59.1777 15.838 59.0625 16.1162 59.0625 16.4063C59.0625 16.6963 59.1777 16.9745 59.3829 17.1797C59.588 17.3848 59.8662 17.5 60.1562 17.5H64.7894C65.0109 17.5003 65.2233 17.5884 65.3799 17.7451C65.5366 17.9017 65.6247 18.1141 65.625 18.3356C65.6251 18.4095 65.6152 18.4831 65.5955 18.5544L59.9802 39.1453C59.7897 39.839 59.3769 40.4511 58.8051 40.8877C58.2334 41.3243 57.5342 41.5614 56.8148 41.5625H26.6678L20.1075 17.5H25.1562C25.4463 17.5 25.7245 17.3848 25.9296 17.1797C26.1348 16.9745 26.25 16.6963 26.25 16.4063C26.25 16.1162 26.1348 15.838 25.9296 15.6329C25.7245 15.4277 25.4463 15.3125 25.1562 15.3125H19.5103L17.0308 6.21907C16.7136 5.06231 16.0258 4.04153 15.0727 3.3133C14.1196 2.58506 12.954 2.18958 11.7545 2.18751H5.46875C4.59851 2.18751 3.76391 2.53321 3.14856 3.14856C2.5332 3.76392 2.1875 4.59851 2.1875 5.46876C2.1875 6.339 2.5332 7.1736 3.14856 7.78895C3.76391 8.4043 4.59851 8.75001 5.46875 8.75001H10.9189L18.6889 37.2444C16.4689 37.4987 14.4304 38.5928 12.9912 40.3022C11.5521 42.0116 10.8215 44.2068 10.9492 46.4376C11.077 48.6685 12.0533 50.7659 13.6781 52.2999C15.3029 53.8339 17.453 54.6882 19.6875 54.6875H19.8078C18.7187 55.7508 17.9712 57.1146 17.6609 58.6047C17.3505 60.0948 17.4913 61.6436 18.0653 63.0533C18.6394 64.463 19.6206 65.6696 20.8836 66.519C22.1466 67.3684 23.6342 67.8221 25.1562 67.8221C26.6783 67.8221 28.1659 67.3684 29.4289 66.519C30.6919 65.6696 31.6731 64.463 32.2472 63.0533C32.8212 61.6436 32.962 60.0948 32.6516 58.6047C32.3413 57.1146 31.5938 55.7508 30.5047 54.6875H44.9641C43.8749 55.7508 43.1275 57.1146 42.8171 58.6047C42.5067 60.0948 42.6476 61.6436 43.2216 63.0533C43.7956 64.463 44.7768 65.6696 46.0398 66.519C47.3029 67.3684 48.7904 67.8221 50.3125 67.8221C51.8346 67.8221 53.3221 67.3684 54.5852 66.519C55.8482 65.6696 56.8294 64.463 57.4034 63.0533C57.9774 61.6436 58.1183 60.0948 57.8079 58.6047C57.4975 57.1146 56.7501 55.7508 55.6609 54.6875H57.9688C58.839 54.6875 59.6736 54.3418 60.2889 53.7265C60.9043 53.1111 61.25 52.2765 61.25 51.4063C61.25 50.536 60.9043 49.7014 60.2889 49.0861C59.6736 48.4707 58.839 48.125 57.9688 48.125H19.6875C19.1073 48.125 18.5509 47.8945 18.1407 47.4843C17.7305 47.0741 17.5 46.5177 17.5 45.9375C17.5 45.3573 17.7305 44.8009 18.1407 44.3907C18.5509 43.9805 19.1073 43.75 19.6875 43.75H56.8148C58.0142 43.7482 59.1798 43.3529 60.1329 42.6249C61.086 41.8968 61.7739 40.8762 62.0911 39.7195L67.7042 19.1352C67.8275 18.6866 67.8455 18.2156 67.7569 17.7589C67.6682 17.3021 67.4754 16.8721 67.1933 16.5021C66.9112 16.1322 66.5475 15.8324 66.1305 15.626C65.7136 15.4197 65.2546 15.3124 64.7894 15.3125ZM30.625 60.1563C30.625 61.2379 30.3043 62.2952 29.7034 63.1945C29.1024 64.0939 28.2483 64.7948 27.2491 65.2087C26.2498 65.6226 25.1502 65.7309 24.0893 65.5199C23.0285 65.3089 22.0541 64.7881 21.2893 64.0232C20.5244 63.2584 20.0036 62.284 19.7926 61.2232C19.5816 60.1623 19.6899 59.0627 20.1038 58.0635C20.5177 57.0642 21.2186 56.2101 22.118 55.6092C23.0173 55.0082 24.0746 54.6875 25.1562 54.6875C26.6061 54.6892 27.9961 55.266 29.0213 56.2912C30.0465 57.3164 30.6233 58.7064 30.625 60.1563ZM55.7812 60.1563C55.7812 61.2379 55.4605 62.2952 54.8596 63.1945C54.2587 64.0939 53.4046 64.7948 52.4053 65.2087C51.406 65.6226 50.3064 65.7309 49.2456 65.5199C48.1848 65.3089 47.2103 64.7881 46.4455 64.0232C45.6807 63.2584 45.1598 62.284 44.9488 61.2232C44.7378 60.1623 44.8461 59.0627 45.26 58.0635C45.674 57.0642 46.3749 56.2101 47.2742 55.6092C48.1736 55.0082 49.2309 54.6875 50.3125 54.6875C51.7624 54.6892 53.1524 55.266 54.1776 56.2912C55.2028 57.3164 55.7795 58.7064 55.7812 60.1563ZM19.6875 41.5625C18.5272 41.5625 17.4144 42.0234 16.5939 42.8439C15.7734 43.6644 15.3125 44.7772 15.3125 45.9375C15.3125 47.0978 15.7734 48.2106 16.5939 49.0311C17.4144 49.8516 18.5272 50.3125 19.6875 50.3125H57.9688C58.2588 50.3125 58.537 50.4277 58.7421 50.6329C58.9473 50.838 59.0625 51.1162 59.0625 51.4063C59.0625 51.6963 58.9473 51.9745 58.7421 52.1797C58.537 52.3848 58.2588 52.5 57.9688 52.5H19.6875C17.947 52.5 16.2778 51.8086 15.0471 50.5779C13.8164 49.3472 13.125 47.678 13.125 45.9375C13.125 44.197 13.8164 42.5278 15.0471 41.2971C16.2778 40.0664 17.947 39.375 19.6875 39.375H20.1053C20.2735 39.375 20.4394 39.3363 20.5902 39.2618C20.741 39.1872 20.8725 39.0789 20.9746 38.9453C21.0767 38.8117 21.1467 38.6563 21.1789 38.4912C21.2112 38.3261 21.205 38.1559 21.1608 37.9936L12.81 7.3686C12.7469 7.13705 12.6094 6.93269 12.4186 6.78702C12.2279 6.64135 11.9945 6.56246 11.7545 6.56251H5.46875C5.17867 6.56251 4.90047 6.44727 4.69535 6.24215C4.49023 6.03704 4.375 5.75884 4.375 5.46876C4.375 5.17868 4.49023 4.90048 4.69535 4.69536C4.90047 4.49024 5.17867 4.37501 5.46875 4.37501H11.7545C12.4741 4.37589 13.1735 4.61282 13.7455 5.04945C14.3175 5.48608 14.7304 6.0983 14.9209 6.79219L24.4005 41.5625H19.6875ZM34.2267 17.1795C34.1223 17.0786 34.0389 16.958 33.9816 16.8245C33.9243 16.6911 33.8941 16.5475 33.8929 16.4023C33.8916 16.2571 33.9193 16.1131 33.9743 15.9787C34.0293 15.8442 34.1105 15.7221 34.2132 15.6194C34.3159 15.5167 34.438 15.4355 34.5724 15.3805C34.7068 15.3255 34.8508 15.2978 34.9961 15.2991C35.1413 15.3004 35.2848 15.3305 35.4183 15.3879C35.5517 15.4452 35.6724 15.5285 35.7733 15.633L40.4688 20.3284L49.5392 11.258C49.6401 11.1535 49.7608 11.0702 49.8942 11.0129C50.0277 10.9555 50.1712 10.9254 50.3164 10.9241C50.4617 10.9228 50.6057 10.9505 50.7401 11.0055C50.8745 11.0605 50.9966 11.1417 51.0993 11.2444C51.202 11.3471 51.2832 11.4692 51.3382 11.6037C51.3932 11.7381 51.4209 11.8821 51.4196 12.0273C51.4184 12.1725 51.3882 12.3161 51.3309 12.4495C51.2736 12.583 51.1902 12.7036 51.0858 12.8045L41.242 22.6483C41.0369 22.8533 40.7588 22.9685 40.4688 22.9685C40.1787 22.9685 39.9006 22.8533 39.6955 22.6483L34.2267 17.1795Z" fill="black"/>
</svg>