<svg width="70" height="70" viewBox="0 0 70 70" fill="none" xmlns="http://www.w3.org/2000/svg">
<path d="M15.82 2.51999V10.22H18.2L14.14 15.12L10.22 10.22H12.6V2.51999" fill="#F3877E"/>
<path d="M31.08 2.51999V13.3H34.3L28.7 20.3L23.1 13.3H26.46V2.51999" fill="#34CBA0"/>
<path d="M45.08 24.5C42.42 22.54 40.6 19.46 40.6 15.82C40.6 10.08 45.22 5.31999 51.1 5.31999C56.84 5.31999 61.6 10.08 61.6 15.82C61.6 19.46 59.78 22.54 57.12 24.5" fill="#F3877E"/>
<path d="M6.3 56.42H5.18C3.64 56.42 2.38 55.16 2.38 53.62V27.02C2.38 25.48 3.64 24.22 5.18 24.22H64.82C66.36 24.22 67.62 25.48 67.62 27.02V53.62C67.62 55.16 66.36 56.42 64.82 56.42H31.36" fill="#2AF57B"/>
<path d="M9.66008 45.92C8.68008 45.5 7.70008 45.22 6.58008 45.22V35.98C10.3601 35.98 13.4401 32.9 13.4401 29.12H56.5601C56.5601 32.9 59.6401 35.98 63.4201 35.98V45.22C59.6401 45.22 56.5601 48.3 56.5601 52.08H30.9401" fill="white"/>
<path d="M19.0401 67.62C25.9215 67.62 31.5001 62.0415 31.5001 55.16C31.5001 48.2785 25.9215 42.7 19.0401 42.7C12.1586 42.7 6.58008 48.2785 6.58008 55.16C6.58008 62.0415 12.1586 67.62 19.0401 67.62Z" fill="#FFC408"/>
<path d="M50.4001 43.54C52.1011 43.54 53.4801 42.161 53.4801 40.46C53.4801 38.759 52.1011 37.38 50.4001 37.38C48.699 37.38 47.3201 38.759 47.3201 40.46C47.3201 42.161 48.699 43.54 50.4001 43.54Z" fill="#34CBA0"/>
<path d="M17.22 42.42C16.8 41.86 16.52 41.16 16.52 40.46C16.52 38.78 17.92 37.38 19.6 37.38C21.28 37.38 22.68 38.78 22.68 40.46C22.68 41.3 22.26 42.14 21.7 42.7" fill="#34CBA0"/>
<path d="M15.8201 5.59999C15.2601 5.59999 14.7001 5.17999 14.7001 4.47999V2.51999C14.7001 1.95999 15.1201 1.39999 15.8201 1.39999C16.5201 1.39999 16.8001 1.95999 16.8001 2.51999V4.47999C16.8001 5.03999 16.3801 5.59999 15.8201 5.59999Z" fill="#151F81"/>
<path d="M14.14 16.1C13.86 16.1 13.58 15.96 13.3 15.68L9.38003 10.92C9.10003 10.5 9.10003 10.08 9.24003 9.79999C9.38003 9.37999 9.80003 9.09999 10.22 9.09999H11.62V2.51999C11.48 1.95999 12.04 1.39999 12.6 1.39999C13.16 1.39999 13.72 1.81999 13.72 2.51999V10.22C13.72 10.78 13.16 11.2 12.6 11.2H12.46L14.14 13.44L15.96 11.2H15.82C15.26 11.2 14.7 10.78 14.7 10.08V7.83999C14.7 7.27999 15.12 6.71999 15.82 6.71999C16.52 6.71999 16.8 7.27999 16.8 7.83999V9.09999H18.2C18.62 9.09999 19.04 9.37999 19.18 9.65999C19.32 10.08 19.32 10.5 19.04 10.78L14.98 15.68C14.7 16.1 14.42 16.1 14.14 16.1ZM28.7 21.28C28.42 21.28 28.14 21.14 27.86 20.86L22.26 13.86C21.98 13.58 21.98 13.16 22.12 12.74C22.26 12.32 22.68 12.18 23.1 12.18H25.34V2.37999C25.34 1.81999 25.76 1.25999 26.46 1.25999C27.16 1.25999 27.58 1.67999 27.58 2.37999V13.16C27.58 13.72 27.16 14.28 26.46 14.28H25.34L28.7 18.48L32.06 14.28H31.08C30.52 14.28 29.96 13.86 29.96 13.16V10.08C29.96 9.51999 30.38 8.95999 31.08 8.95999C31.78 8.95999 32.2 9.51999 32.2 10.08V12.18H34.3C34.72 12.18 35.14 12.46 35.28 12.74C35.42 13.16 35.42 13.58 35.14 13.86L29.54 20.86C29.26 21.14 28.98 21.28 28.7 21.28Z" fill="#151F81"/>
<path d="M31.08 6.29999C30.52 6.29999 29.96 5.87999 29.96 5.17999V2.37999C29.96 1.81999 30.38 1.25999 31.08 1.25999C31.78 1.25999 32.2 1.95999 32.2 2.51999V5.31999C32.2 5.87999 31.64 6.29999 31.08 6.29999ZM19.04 68.6C11.62 68.6 5.59998 62.58 5.59998 55.16C5.59998 47.74 11.62 41.58 19.04 41.58C26.46 41.58 32.48 47.6 32.48 55.16C32.48 62.58 26.46 68.6 19.04 68.6ZM19.04 43.68C12.74 43.68 7.69998 48.86 7.69998 55.16C7.69998 61.46 12.88 66.5 19.04 66.5C25.2 66.5 30.38 61.32 30.38 55.16C30.52 48.86 25.34 43.68 19.04 43.68Z" fill="#151F81"/>
<path d="M64.82 57.4H31.36C30.8 57.4 30.24 56.98 30.24 56.28C30.24 55.58 30.66 55.16 31.36 55.16H64.82C65.8 55.16 66.5 54.32 66.5 53.48V26.88C66.5 25.9 65.66 25.2 64.82 25.2H5.18002C4.20002 25.2 3.50002 26.04 3.50002 26.88V53.48C3.50002 54.46 4.34002 55.16 5.18002 55.16H6.30002C6.86002 55.16 7.42002 55.58 7.42002 56.28C7.42002 56.98 6.86002 57.4 6.30002 57.4H5.18002C3.08002 57.4 1.40002 55.72 1.40002 53.62V27.02C1.40002 24.92 3.08002 23.1 5.32002 23.1H64.96C67.06 23.1 68.88 24.78 68.88 27.02V53.62C68.6 55.72 66.92 57.4 64.82 57.4Z" fill="#151F81"/>
<path d="M56.56 53.2H30.94C30.38 53.2 29.82 52.78 29.82 52.08C29.82 51.38 30.24 50.96 30.94 50.96H55.58C56 47.46 58.8 44.66 62.3 44.1V36.82C58.8 36.4 56 33.6 55.58 29.96H14.42C14 33.74 11.2 36.54 7.69998 36.96V44.24C8.53998 44.38 9.23998 44.52 10.08 44.94C10.64 45.22 10.92 45.78 10.64 46.34C10.36 46.9 9.79998 47.18 9.23998 46.9C8.25998 46.48 7.41998 46.2 6.57998 46.2C6.01998 46.2 5.59998 45.78 5.59998 45.22V35.98C5.59998 35.42 6.01998 35 6.57998 35C9.79998 35 12.32 32.34 12.32 29.12C12.32 28.56 12.74 28 13.44 28H56.56C57.12 28 57.68 28.42 57.68 29.12C57.68 32.34 60.34 35 63.42 35C63.98 35 64.54 35.42 64.54 36.12V45.36C64.54 45.92 64.12 46.48 63.42 46.48C60.2 46.48 57.68 49.14 57.68 52.36C57.68 52.64 57.12 53.2 56.56 53.2Z" fill="#151F81"/>
<path d="M35 37.52C34.44 37.52 33.88 37.1 33.88 36.4V34.44C33.88 33.88 34.3 33.32 35 33.32C35.7 33.32 36.12 33.74 36.12 34.44V36.4C36.12 36.96 35.56 37.52 35 37.52Z" fill="#151F81"/>
<path d="M36.4 45.5H31.64C31.08 45.5 30.52 45.08 30.52 44.38C30.52 43.68 30.94 43.26 31.64 43.26H36.4C36.96 43.26 37.52 42.7 37.52 42.14C37.52 41.86 37.38 41.58 37.24 41.44C37.1 41.3 36.96 41.16 36.54 41.16H33.6C31.92 41.16 30.52 39.76 30.52 38.08C30.52 37.24 30.8 36.4 31.36 35.98C31.92 35.42 32.62 35.14 33.46 35.14H38.22C38.78 35.14 39.34 35.56 39.34 36.26C39.34 36.96 38.92 37.38 38.22 37.38H33.46C33.18 37.38 33.04 37.38 32.76 37.66C32.62 37.8 32.48 38.08 32.48 38.36C32.48 38.92 33.04 39.48 33.6 39.48H36.54C37.38 39.48 38.08 39.76 38.64 40.32C39.2 40.88 39.48 41.72 39.48 42.42C39.48 44.1 38.08 45.5 36.4 45.5Z" fill="#151F81"/>
<path d="M35 47.6C34.44 47.6 33.88 47.18 33.88 46.48V44.52C33.88 43.96 34.3 43.4 35 43.4C35.7 43.4 36.12 43.82 36.12 44.52V46.48C36.12 47.04 35.56 47.6 35 47.6ZM19.04 52.08C18.48 52.08 17.92 51.66 17.92 50.96V49C17.92 48.44 18.34 47.88 19.04 47.88C19.74 47.88 20.16 48.3 20.16 49V50.96C20.16 51.66 19.6 52.08 19.04 52.08Z" fill="#151F81"/>
<path d="M20.3 60.2H15.54C14.98 60.2 14.42 59.78 14.42 59.08C14.42 58.38 14.84 57.96 15.54 57.96H20.3C20.86 57.96 21.42 57.4 21.42 56.84C21.42 56.56 21.28 56.28 21.14 56.14C21 56 20.86 55.86 20.44 55.86H17.78C16.1 55.86 14.7 54.46 14.7 52.78C14.7 51.94 14.98 51.1 15.54 50.68C16.1 50.12 16.8 49.84 17.64 49.84H22.4C22.96 49.84 23.52 50.26 23.52 50.96C23.52 51.66 23.1 52.08 22.4 52.08H17.64C17.36 52.08 17.22 52.08 16.94 52.36C16.8 52.5 16.66 52.78 16.66 53.06C16.66 53.62 17.22 54.18 17.78 54.18H20.44C21.28 54.18 21.98 54.46 22.54 55.02C23.1 55.58 23.38 56.42 23.38 57.12C23.52 58.8 21.98 60.2 20.3 60.2Z" fill="#151F81"/>
<path d="M19.04 62.3C18.48 62.3 17.92 61.88 17.92 61.18V59.22C17.92 58.66 18.34 58.1 19.04 58.1C19.74 58.1 20.16 58.52 20.16 59.22V61.18C20.16 61.74 19.6 62.3 19.04 62.3ZM50.96 13.44C50.4 13.44 49.84 13.02 49.84 12.32V10.78C49.98 10.22 50.4 9.79999 50.96 9.79999C51.52 9.79999 52.08 10.22 52.08 10.92V12.6C52.08 13.02 51.52 13.44 50.96 13.44Z" fill="#151F81"/>
<path d="M52.0801 20.3H48.4401C47.8801 20.3 47.3201 19.88 47.3201 19.18C47.3201 18.48 47.7401 18.06 48.4401 18.06H52.0801C52.5001 18.06 52.7801 17.64 52.7801 17.5C52.7801 17.36 52.7801 17.22 52.5001 16.94C52.2201 16.8 51.9401 16.8 51.9401 16.8H50.1201C48.5801 16.8 47.3201 15.54 47.3201 14.14C47.3201 13.44 47.6001 12.74 48.1601 12.18C48.8601 11.62 49.5601 11.2 50.2601 11.2H53.9001C54.4601 11.2 55.0201 11.62 55.0201 12.32C55.0201 13.02 54.6001 13.44 53.9001 13.44H50.2601C50.2601 13.44 49.9801 13.44 49.7001 13.72C49.4201 14 49.4201 14.14 49.4201 14.28C49.4201 14.56 49.7001 14.84 50.1201 14.84H51.9401C52.6401 14.84 53.3401 15.12 53.9001 15.68C54.4601 16.24 54.7401 16.94 54.7401 17.64C54.8801 19.18 53.6201 20.3 52.0801 20.3Z" fill="#151F81"/>
<path d="M50.96 22.12C50.4 22.12 49.84 21.7 49.84 21V19.32C49.84 18.76 50.26 18.2 50.96 18.2C51.66 18.2 52.08 18.62 52.08 19.32V21C52.08 21.56 51.52 22.12 50.96 22.12ZM50.4 44.52C48.16 44.52 46.2 42.7 46.2 40.46C46.2 38.22 48.02 36.26 50.4 36.26C52.78 36.26 54.6 38.08 54.6 40.46C54.6 42.7 52.64 44.52 50.4 44.52ZM50.4 38.5C49.28 38.5 48.3 39.48 48.3 40.6C48.3 41.72 49.28 42.56 50.4 42.56C51.52 42.56 52.5 41.58 52.5 40.6C52.5 39.34 51.52 38.5 50.4 38.5ZM21.7 43.68C21.42 43.68 21.14 43.54 21 43.4C20.58 42.98 20.58 42.28 21 41.86C21.42 41.44 21.7 40.88 21.7 40.32C21.7 39.2 20.72 38.22 19.6 38.22C18.48 38.22 17.5 39.2 17.5 40.32C17.5 40.74 17.64 41.3 17.92 41.58C18.2 42 18.2 42.7 17.78 42.98C17.36 43.26 16.66 43.26 16.38 42.84C15.82 42 15.4 41.16 15.4 40.32C15.4 38.08 17.22 36.12 19.6 36.12C21.98 36.12 23.8 37.94 23.8 40.32C23.8 41.44 23.38 42.56 22.54 43.26C22.26 43.68 21.98 43.68 21.7 43.68Z" fill="#151F81"/>
<path d="M57.12 25.48C56.84 25.48 56.42 25.34 56.28 25.06C56 24.64 56 23.94 56.56 23.66C59.08 21.7 60.62 18.9 60.62 15.82C60.62 10.64 56.28 6.3 51.1 6.3C45.92 6.3 41.58 10.5 41.58 15.82C41.58 18.9 43.12 21.7 45.64 23.66C46.06 23.94 46.2 24.64 45.92 25.06C45.64 25.48 44.94 25.62 44.52 25.34C41.44 23.1 39.62 19.6 39.62 15.82C39.48 9.52 44.8 4.2 51.1 4.2C57.4 4.2 62.58 9.38 62.58 15.68C62.58 19.46 60.76 22.96 57.68 25.2C57.54 25.48 57.4 25.48 57.12 25.48Z" fill="#151F81"/>
</svg>