<svg width="70" height="70" viewBox="0 0 70 70" fill="none" xmlns="http://www.w3.org/2000/svg">
<g clip-path="url(#clip0_28_96)">
<path d="M22.1695 47.8226H14.6707L1.17426 61.0414L8.67307 68.8178L22.1695 55.599V47.8226Z" fill="#FF7F00"/>
<path d="M45.4976 24.4945H53.8292L68.8257 9.80595L60.4941 1.1664L45.4976 15.8549V24.4945Z" fill="#F4393D"/>
<path d="M29.168 38.4913L34.0365 54.821H52.0715L57.1617 38.4913H29.168Z" fill="#17AFDC"/>
<path d="M38.4992 68.8178C39.7876 68.8178 40.832 67.7734 40.832 66.485C40.832 65.1967 39.7876 64.1522 38.4992 64.1522C37.2108 64.1522 36.1664 65.1967 36.1664 66.485C36.1664 67.7734 37.2108 68.8178 38.4992 68.8178Z" fill="#DBE6FD"/>
<path d="M51.3296 68.8178C52.618 68.8178 53.6624 67.7734 53.6624 66.485C53.6624 65.1967 52.618 64.1522 51.3296 64.1522C50.0413 64.1522 48.9968 65.1967 48.9968 66.485C48.9968 67.7734 50.0413 68.8178 51.3296 68.8178Z" fill="#DBE6FD"/>
<path d="M33.8336 33.8257V22.1617L13.2699 1.1664L1.17426 12.8304L21.738 33.8257H33.8336Z" fill="#FCCC38"/>
<path d="M52.0724 55.9874H34.0364C33.7852 55.9874 33.5408 55.9064 33.3394 55.7562C33.1381 55.6061 32.9906 55.3949 32.919 55.1541L28.0506 38.8245C27.9986 38.6504 27.988 38.4666 28.0197 38.2877C28.0513 38.1089 28.1243 37.9399 28.2329 37.7942C28.3414 37.6485 28.4825 37.5303 28.6448 37.4488C28.8072 37.3673 28.9863 37.3249 29.168 37.3249H57.1617C57.3446 37.3249 57.5249 37.3679 57.6881 37.4504C57.8513 37.5328 57.9928 37.6526 58.1013 37.7998C58.2097 37.9471 58.282 38.1178 58.3123 38.2981C58.3426 38.4785 58.3301 38.6634 58.2758 38.838L53.1864 55.1677C53.1123 55.4052 52.9642 55.6128 52.7638 55.7602C52.5634 55.9076 52.3212 55.9872 52.0724 55.9874ZM34.9055 53.6546H51.2146L55.5761 39.6577H30.733L34.9055 53.6546Z" fill="black"/>
<path d="M36.1664 43.157H50.1632V45.4898H36.1664V43.157ZM37.3328 47.8226H48.9968V50.1554H37.3328V47.8226Z" fill="black"/>
<path d="M64.1601 36.1585C63.9215 36.1585 63.6886 36.2317 63.4929 36.3681C63.2971 36.5046 63.1479 36.6978 63.0654 36.9216L55.182 58.3202H31.5008V60.653H37.3328V63.2007C35.5107 63.8449 34.5559 65.8442 35.2002 67.6662C35.8443 69.4882 37.8437 70.4431 39.6656 69.7988C41.4877 69.1546 42.4425 67.1553 41.7982 65.3334C41.6243 64.8413 41.3425 64.3945 40.9735 64.0255C40.6045 63.6565 40.1576 63.3747 39.6656 63.2007V60.653H50.1632V63.2007C48.3412 63.8449 47.3863 65.8442 48.0306 67.6662C48.6748 69.4882 50.6741 70.4431 52.4961 69.7988C54.3181 69.1546 55.273 67.1553 54.6287 65.3334C54.4547 64.8413 54.173 64.3945 53.8039 64.0255C53.4349 63.6565 52.9881 63.3747 52.4961 63.2007V60.653H55.9953C56.2339 60.653 56.4668 60.5799 56.6625 60.4434C56.8582 60.307 57.0074 60.1138 57.0899 59.8899L64.9734 38.4913H69.9921V36.1585H64.1601ZM38.4992 67.6514C38.2685 67.6514 38.043 67.583 37.8512 67.4549C37.6594 67.3267 37.5099 67.1445 37.4216 66.9314C37.3333 66.7183 37.3102 66.4837 37.3552 66.2575C37.4002 66.0312 37.5113 65.8234 37.6744 65.6603C37.8376 65.4971 38.0454 65.386 38.2717 65.341C38.4979 65.296 38.7324 65.3191 38.9456 65.4074C39.1587 65.4957 39.3409 65.6452 39.469 65.837C39.5972 66.0288 39.6656 66.2543 39.6656 66.485C39.6653 66.7943 39.5424 67.0908 39.3237 67.3095C39.105 67.5282 38.8085 67.6512 38.4992 67.6514ZM51.3297 67.6514C51.099 67.6514 50.8734 67.583 50.6816 67.4549C50.4898 67.3267 50.3403 67.1445 50.252 66.9314C50.1638 66.7183 50.1407 66.4837 50.1857 66.2575C50.2307 66.0312 50.3418 65.8234 50.5049 65.6603C50.668 65.4971 50.8758 65.386 51.1021 65.341C51.3284 65.296 51.5629 65.3191 51.776 65.4074C51.9892 65.4957 52.1713 65.6452 52.2995 65.837C52.4276 66.0288 52.4961 66.2543 52.4961 66.485C52.4958 66.7943 52.3728 67.0908 52.1541 67.3095C51.9354 67.5282 51.6389 67.6512 51.3297 67.6514ZM33.8336 34.9921H22.1695C22.0164 34.9921 21.8647 34.9619 21.7232 34.9033C21.5817 34.8447 21.4532 34.7587 21.3449 34.6504L0.349623 13.6551C0.241317 13.5469 0.155391 13.4184 0.0967535 13.2769C0.0381157 13.1355 0.00791419 12.9839 0.00787358 12.8307C0.00783296 12.6776 0.0379541 12.526 0.0965168 12.3845C0.155079 12.2431 0.240937 12.1145 0.349185 12.0062L0.349623 12.0058L12.0137 0.341749C12.1219 0.233443 12.2504 0.147518 12.3918 0.08888C12.5333 0.0302422 12.6849 4.06585e-05 12.838 4.10238e-08C12.9911 -4.05764e-05 13.1427 0.0300805 13.2842 0.0886432C13.4257 0.147206 13.5542 0.233063 13.6625 0.341312L13.663 0.341749L34.6582 21.337C34.8769 21.5558 34.9998 21.8524 35 22.1617V33.8257C35 33.9789 34.9699 34.1305 34.9113 34.272C34.8528 34.4135 34.7669 34.5421 34.6587 34.6504C34.5504 34.7587 34.4219 34.8446 34.2804 34.9032C34.1389 34.9619 33.9873 34.9921 33.8342 34.9921H33.8336ZM22.6524 32.6593H32.6672V22.6446L12.8383 2.81569L2.82357 12.8304L22.6524 32.6593ZM54.5453 18.6609C52.7702 18.6622 51.3301 17.2243 51.3286 15.4492C51.3283 15.0263 51.4115 14.6075 51.5733 14.2168C51.7351 13.8261 51.9724 13.4712 52.2717 13.1723L53.921 14.8216C53.839 14.9037 53.7739 15.0011 53.7295 15.1082C53.6852 15.2154 53.6623 15.3303 53.6624 15.4463C53.6624 15.5623 53.6853 15.6772 53.7297 15.7843C53.7741 15.8915 53.8392 15.9889 53.9213 16.0709C54.0033 16.1529 54.1007 16.2179 54.2079 16.2623C54.315 16.3067 54.4299 16.3295 54.5459 16.3295C54.6619 16.3294 54.7768 16.3066 54.884 16.2621C54.9911 16.2177 55.0885 16.1526 55.1705 16.0706C55.486 15.7556 55.5383 15.6394 54.962 14.5408C54.4391 13.5453 53.5643 11.8788 55.1705 10.2732C56.4257 9.01659 58.4621 9.01542 59.7187 10.2706C60.9754 11.5258 60.9765 13.5622 59.7213 14.8189L59.7187 14.8215L58.0694 13.1722C58.1514 13.0902 58.2165 12.9928 58.2609 12.8856C58.3052 12.7784 58.3281 12.6635 58.328 12.5475C58.328 12.4315 58.3051 12.3167 58.2607 12.2095C58.2163 12.1023 58.1512 12.005 58.0691 11.923C57.9871 11.841 57.8897 11.7759 57.7825 11.7315C57.6753 11.6872 57.5605 11.6643 57.4445 11.6644C57.3285 11.6644 57.2136 11.6873 57.1064 11.7317C56.9993 11.7761 56.9019 11.8412 56.8199 11.9233C56.5032 12.2399 56.4497 12.3567 57.0272 13.4571C57.5489 14.452 58.4226 16.1174 56.8199 17.7206C56.5212 18.0192 56.1666 18.256 55.7763 18.4173C55.3859 18.5786 54.9676 18.6614 54.5453 18.6609ZM11.6298 61.2346C10.0433 61.2361 8.75604 59.9513 8.75459 58.365C8.75422 57.9869 8.82852 57.6124 8.97321 57.2631C9.1179 56.9137 9.33014 56.5964 9.59775 56.3293L11.247 57.9786C11.1966 58.0288 11.1565 58.0884 11.1291 58.1541C11.1018 58.2198 11.0876 58.2902 11.0874 58.3614C11.0872 58.4325 11.1011 58.503 11.1281 58.5688C11.1552 58.6346 11.195 58.6945 11.2451 58.7449C11.2953 58.7954 11.355 58.8354 11.4207 58.8628C11.4863 58.8902 11.5568 58.9044 11.6279 58.9046C11.6991 58.9048 11.7696 58.8909 11.8354 58.8638C11.9012 58.8368 11.961 58.797 12.0115 58.7468L12.0137 58.7446C12.2028 58.5555 12.2369 58.5214 11.8052 57.6978C10.9331 56.5573 11.0215 54.9516 12.0137 53.9138C13.1362 52.7912 14.9561 52.791 16.0787 53.9135C17.2014 55.036 17.2015 56.8559 16.079 57.9786L14.4297 56.3293C14.4802 56.2791 14.5202 56.2195 14.5476 56.1538C14.575 56.0881 14.5892 56.0177 14.5894 55.9465C14.5896 55.8754 14.5757 55.8049 14.5486 55.7391C14.5216 55.6732 14.4818 55.6134 14.4316 55.563C14.3814 55.5125 14.3218 55.4725 14.2561 55.4451C14.1904 55.4177 14.12 55.4035 14.0488 55.4033C13.9777 55.4031 13.9072 55.417 13.8414 55.444C13.7756 55.4711 13.7157 55.5109 13.6653 55.5611L13.6631 55.5633C13.4718 55.7541 13.4376 55.7888 13.8704 56.614C14.7417 57.7533 14.6538 59.3574 13.6631 60.3947C13.3962 60.6617 13.0792 60.8733 12.7302 61.0175C12.3813 61.1616 12.0073 61.2354 11.6298 61.2346Z" fill="black"/>
<path d="M53.6625 25.6609H45.4976C45.3445 25.6609 45.1928 25.6308 45.0514 25.5722C44.9099 25.5137 44.7813 25.4278 44.673 25.3195C44.5647 25.2113 44.4787 25.0828 44.4201 24.9413C44.3615 24.7998 44.3313 24.6482 44.3312 24.4951V16.3297C44.3313 16.0203 44.4543 15.7237 44.673 15.505L59.8362 0.341749C59.9445 0.233443 60.073 0.147518 60.2144 0.08888C60.3559 0.0302422 60.5075 4.06585e-05 60.6606 4.10238e-08C60.8137 -4.05764e-05 60.9653 0.0300805 61.1068 0.0886432C61.2483 0.147206 61.3768 0.233063 61.4851 0.341312L61.4855 0.341749L69.6504 8.50658C69.7587 8.61481 69.8446 8.74331 69.9032 8.88476C69.9619 9.0262 69.9921 9.1778 69.9921 9.33092C69.9921 9.48403 69.962 9.63565 69.9035 9.77713C69.8449 9.9186 69.759 10.0471 69.6508 10.1554L69.6504 10.1559L54.4871 25.3191C54.3789 25.4275 54.2503 25.5135 54.1088 25.5722C53.9673 25.6308 53.8156 25.661 53.6625 25.6609ZM46.664 23.3281H53.1796L67.1764 9.33123L60.6609 2.81569L46.664 16.8125V23.3281ZM9.3391 69.9842C9.18591 69.9844 9.03419 69.9543 8.89267 69.8957C8.75115 69.837 8.62262 69.751 8.51445 69.6425L0.349622 61.4777C0.241317 61.3694 0.155391 61.2409 0.0967535 61.0995C0.0381157 60.958 0.00791419 60.8064 0.00787358 60.6533C0.00783296 60.5002 0.0379541 60.3486 0.0965168 60.2071C0.155079 60.0656 0.240937 59.9371 0.349185 59.8288L0.349622 59.8284L13.1801 46.9979C13.2883 46.8896 13.4169 46.8036 13.5584 46.745C13.6999 46.6863 13.8515 46.6562 14.0047 46.6562H22.1695C22.3227 46.6561 22.4743 46.6862 22.6158 46.7448C22.7573 46.8034 22.8859 46.8892 22.9942 46.9975C23.1025 47.1058 23.1884 47.2343 23.2471 47.3758C23.3057 47.5172 23.3359 47.6688 23.3359 47.822V55.9874C23.3358 56.2967 23.2129 56.5933 22.9942 56.812L10.1637 69.6425C10.0556 69.751 9.92707 69.8371 9.78555 69.8957C9.64402 69.9544 9.4923 69.9845 9.3391 69.9842ZM2.82357 60.653L9.3391 67.1685L21.0031 55.5045V48.989H14.4876L2.82357 60.653ZM27.4184 29.1601C26.4521 29.1601 25.6688 28.3767 25.6688 27.4105C25.6688 26.4443 26.4521 25.6609 27.4184 25.6609C28.3846 25.6609 29.168 26.4443 29.168 27.4105C29.167 28.3764 28.3841 29.1591 27.4184 29.1601ZM23.5616 21.9045C23.9461 21.1718 24.0869 20.3357 23.9638 19.5176C23.8406 18.6994 23.4599 17.9418 22.8768 17.3548C20.9416 15.4184 18.9596 16.4584 17.6474 17.1474C16.2304 17.8907 15.801 18.0074 15.1472 17.3548C14.5367 16.7415 14.5391 15.7495 15.1523 15.139C15.7635 14.5308 16.7513 14.5306 17.3626 15.1388L19.0121 13.4895C18.425 12.9063 17.6673 12.5256 16.8491 12.4024C16.0308 12.2793 15.1946 12.4203 14.4619 12.8048L12.4966 10.8394L10.8473 12.4887L12.8129 14.4544C12.4286 15.1871 12.2877 16.0232 12.4109 16.8414C12.5341 17.6595 12.9149 18.4172 13.4979 19.0042C15.4355 20.9435 17.4197 19.9018 18.7319 19.2133C20.1444 18.4694 20.5738 18.3528 21.2275 19.0042C21.8393 19.616 21.8393 20.6079 21.2275 21.2197C20.6157 21.8314 19.6239 21.8314 19.0121 21.2197L17.3628 22.8691C17.9461 23.4582 18.7041 23.8431 19.5239 23.9665C20.3438 24.0899 21.1815 23.9451 21.9124 23.5538L23.6777 25.3191L25.327 23.6698L23.5616 21.9045ZM43.1648 27.9937H45.4976V30.3265H43.1648V27.9937ZM43.1648 32.6593H45.4976V34.9921H43.1648V32.6593ZM23.3359 37.3249H25.6688V39.6577H23.3359V37.3249ZM23.3359 41.9905H25.6688V44.3234H23.3359V41.9905Z" fill="black"/>
</g>
<defs>
<clipPath id="clip0_28_96">
<rect width="70" height="70" fill="white"/>
</clipPath>
</defs>
</svg>