<svg width="70" height="70" viewBox="0 0 70 70" fill="none" xmlns="http://www.w3.org/2000/svg">
<path d="M16.583 41.16C16.583 44.877 13.937 47.887 10.675 47.887C7.413 47.887 4.767 44.877 4.767 41.16C4.767 37.443 7.413 34.433 10.675 34.433C13.937 34.433 16.583 37.443 16.583 41.16ZM65.737 41.16C65.737 44.877 63.091 47.887 59.829 47.887C56.567 47.887 53.921 44.877 53.921 41.16C53.921 37.443 56.567 34.433 59.829 34.433C63.091 34.433 65.737 37.443 65.737 41.16Z" fill="#FFAF78"/>
<path d="M62.832 34.72C62.832 51.723 51.044 64.526 35.252 64.526C19.46 64.526 7.672 51.723 7.672 34.72C7.672 17.717 19.453 5.964 35.252 5.964C51.051 5.964 62.832 17.71 62.832 34.72Z" fill="#FFC08D"/>
<path d="M35.28 5.474C51.548 5.474 63.35 17.773 63.35 34.713C63.35 34.986 63.133 35.203 62.86 35.21C62.643 35.21 56.154 31.486 51.66 22.379C49.959 23.954 40.397 35.483 12.18 35.483C10.654 35.504 9.128 35.413 7.616 35.203C7.50036 35.1833 7.39542 35.1233 7.31982 35.0336C7.24421 34.9439 7.20283 34.8303 7.203 34.713C7.203 17.773 19.012 5.474 35.28 5.474Z" fill="#B26C46"/>
<path d="M20.062 29.897C20.062 31.3154 19.4986 32.6757 18.4956 33.6786C17.4927 34.6816 16.1324 35.245 14.714 35.245H9.604C8.18667 35.2437 6.82786 34.6796 5.8263 33.6767C4.82475 32.6739 4.26244 31.3143 4.263 29.897C4.26633 28.4815 4.83011 27.1249 5.83102 26.124C6.83193 25.1231 8.1885 24.5593 9.604 24.556H14.714C17.668 24.556 20.055 26.943 20.062 29.897Z" fill="#B26C46"/>
<path d="M18.655 21.896C18.655 24.066 16.891 25.83 14.721 25.83H10.962C9.92002 25.8276 8.92151 25.4121 8.18537 24.6747C7.44924 23.9372 7.03555 22.938 7.03499 21.896C7.02799 19.726 8.78499 17.969 10.955 17.962H14.721C16.891 17.962 18.655 19.726 18.655 21.896Z" fill="#B26C46"/>
<path d="M24.696 16.1C24.696 17.913 23.226 19.383 21.413 19.39H14.35C13.4786 19.3863 12.6439 19.0385 12.0277 18.4223C11.4115 17.8061 11.0637 16.9714 11.06 16.1C11.06 14.28 12.53 12.81 14.35 12.81H21.406C23.219 12.81 24.689 14.28 24.689 16.093V16.1H24.696Z" fill="#B26C46"/>
</svg>