<svg width="70" height="70" viewBox="0 0 70 70" fill="none" xmlns="http://www.w3.org/2000/svg">
<g id="ingresos" clip-path="url(#clip0_30_310)">
<g id="Group">
<path id="Vector" d="M21.5796 22.8354H30.3159V35.1851H21.5796V22.8354Z" fill="#E19974"/>
<path id="Vector_2" d="M21.5796 22.8349H27.0397V35.1846H21.5796V22.8349Z" fill="#DC8758"/>
<path id="Vector_3" d="M12.8433 26.3316H21.5796V35.1851H12.8433V26.3316Z" fill="#F07281"/>
<path id="Vector_4" d="M12.8433 26.3322H18.3034V35.1846H12.8433V26.3322Z" fill="#EB5569"/>
<path id="Vector_5" d="M30.3159 18.6655H39.0522V35.1851H30.3159V18.6655Z" fill="#FEE97D"/>
<path id="Vector_6" d="M30.3159 18.6659H35.7761V35.1844H30.3159V18.6659Z" fill="#FEE45A"/>
<path id="Vector_7" d="M39.0521 14.4956H47.7885V35.1851H39.0521V14.4956Z" fill="#ADE194"/>
<path id="Vector_8" d="M39.0521 14.4957H44.5123V35.1844H39.0521V14.4957Z" fill="#97DA7B"/>
<path id="Vector_9" d="M60.9385 7.53853L52.1566 1.02388L43.3749 7.53853H47.7884V35.1851H56.5248V7.53853H60.9385Z" fill="#8AC9FE"/>
<path id="Vector_10" d="M53.2487 35.1844H47.7884V7.53812H43.3752L52.1566 1.02402L53.3429 1.90421L53.2487 35.1844Z" fill="#60B7FF"/>
<path id="Vector_11" d="M9.06152 40.3102H60.3064V68.9762H9.06152V40.3102Z" fill="#ADE194"/>
<path id="Vector_12" d="M9.06201 40.3103H18.6174V68.9764H9.06201V40.3103Z" fill="#97DA7B"/>
<path id="Vector_13" d="M18.6174 44.5923V64.6954H16.0825C15.7713 63.3782 14.7271 62.3462 13.403 62.0527V47.2351C14.7271 46.9402 15.7713 45.9082 16.0825 44.5923H18.6174Z" fill="#80D261"/>
<path id="Vector_14" d="M53.285 64.6954C53.5965 63.379 54.6411 62.3469 55.9647 62.0525V47.2352C54.6411 46.9407 53.5963 45.9088 53.285 44.5923H16.0829C15.7714 45.9088 14.7268 46.9409 13.4032 47.2352V62.0524C14.7268 62.3469 15.7716 63.3788 16.0829 64.6953L53.285 64.6954Z" fill="#97DA7B"/>
<path id="Vector_15" d="M18.6174 44.5923V64.6954H16.0825C15.7713 63.3782 14.7271 62.3462 13.403 62.0527V47.2351C14.7271 46.9402 15.7713 45.9082 16.0825 44.5923H18.6174Z" fill="#80D261"/>
<g id="Group_2">
<path id="Vector_16" d="M38.4325 44.5916H30.9354C28.8445 46.6513 27.4473 50.3829 27.4473 54.6439C27.4473 58.9049 28.8445 62.6365 30.9354 64.6961H38.4325C40.5233 62.6365 41.9206 58.9049 41.9206 54.6439C41.9206 50.3829 40.5233 46.6513 38.4325 44.5916Z" fill="#FEE97D"/>
<path id="Vector_17" d="M20.4504 56.9207C21.7078 56.9207 22.7271 55.9013 22.7271 54.6439C22.7271 53.3865 21.7078 52.3671 20.4504 52.3671C19.1929 52.3671 18.1736 53.3865 18.1736 54.6439C18.1736 55.9013 19.1929 56.9207 20.4504 56.9207Z" fill="#FEE97D"/>
<path id="Vector_18" d="M48.9175 56.9207C50.175 56.9207 51.1943 55.9013 51.1943 54.6439C51.1943 53.3865 50.175 52.3671 48.9175 52.3671C47.6601 52.3671 46.6407 53.3865 46.6407 54.6439C46.6407 55.9013 47.6601 56.9207 48.9175 56.9207Z" fill="#FEE97D"/>
</g>
<path id="Vector_19" d="M60.3053 39.2848H24.9621C24.3958 39.2848 23.9367 39.7437 23.9367 40.3102C23.9367 40.8766 24.3958 41.3355 24.9621 41.3355H59.2799V67.9492H10.0885V41.3355H20.4928C21.0591 41.3355 21.5182 40.8766 21.5182 40.3102C21.5182 39.7437 21.0591 39.2848 20.4928 39.2848H9.06311C8.79116 39.2848 8.53035 39.3928 8.33805 39.5851C8.14575 39.7774 8.03772 40.0382 8.03772 40.3102V68.9746C8.03772 69.2466 8.14575 69.5074 8.33805 69.6997C8.53035 69.892 8.79116 70 9.06311 70H60.3053C60.5772 70 60.8381 69.892 61.0304 69.6997C61.2227 69.5074 61.3307 69.2466 61.3307 68.9746V40.3102C61.3307 40.0382 61.2227 39.7774 61.0304 39.5851C60.8381 39.3928 60.5772 39.2848 60.3053 39.2848Z" fill="black"/>
<path id="Vector_20" d="M48.8743 65.7193H53.2848C53.5158 65.7193 53.7401 65.6413 53.9213 65.4979C54.1024 65.3545 54.2298 65.1541 54.2829 64.9292C54.5024 63.9971 55.2499 63.2603 56.1867 63.0522C56.4144 63.0016 56.6181 62.8749 56.7641 62.6929C56.9101 62.5109 56.9897 62.2846 56.9897 62.0513V47.2349C56.9897 47.0018 56.9103 46.7756 56.7645 46.5937C56.6187 46.4118 56.4153 46.285 56.1878 46.2342C55.25 46.025 54.5023 45.2881 54.2827 44.357C54.2297 44.1321 54.1023 43.9317 53.9212 43.7883C53.74 43.6449 53.5157 43.5669 53.2847 43.5669H16.0835C15.8526 43.5669 15.6286 43.6448 15.4475 43.788C15.2664 43.9312 15.1389 44.1313 15.0857 44.3559C14.8651 45.2879 14.1172 46.0253 13.1805 46.2342C12.953 46.285 12.7495 46.4118 12.6037 46.5937C12.4579 46.7756 12.3784 47.0018 12.3784 47.2349V62.0512C12.3784 62.2845 12.458 62.5108 12.604 62.6928C12.75 62.8748 12.9537 63.0015 13.1815 63.0521C14.1173 63.26 14.8648 63.9971 15.0857 64.93C15.1389 65.1547 15.2663 65.3549 15.4474 65.4981C15.6285 65.6413 15.8526 65.7192 16.0835 65.7192H30.9219C30.9264 65.7192 30.9309 65.7199 30.9355 65.7199H38.4322C38.4367 65.7199 38.4413 65.7193 38.4459 65.7192H44.4063C44.9726 65.7192 45.4317 65.2602 45.4317 64.6938C45.4317 64.1274 44.9726 63.6684 44.4063 63.6684H40.5633C42.078 61.3106 42.9457 58.0932 42.9457 54.6426C42.9457 51.1924 42.0781 47.9751 40.5635 45.6173H52.5527C53.02 46.6711 53.8784 47.5193 54.9391 47.9758V61.3092C53.8754 61.7678 53.0234 62.61 52.5525 63.6683H48.8743C48.6023 63.6683 48.3414 63.7763 48.1491 63.9686C47.9568 64.161 47.8487 64.4218 47.8487 64.6938C47.8487 64.9658 47.9568 65.2266 48.1491 65.419C48.3414 65.6113 48.6023 65.7193 48.8743 65.7193ZM14.4293 61.3097V47.976C15.4921 47.5167 16.3436 46.675 16.8152 45.6176H28.8045C27.2899 47.9754 26.4223 51.1927 26.4223 54.6429C26.4223 58.0934 27.2901 61.3108 28.8046 63.6687H16.8152C16.3443 62.6107 15.4926 61.7686 14.4293 61.3097ZM40.8949 54.6429C40.8949 58.2723 39.7922 61.6804 37.9957 63.6687H31.3725C29.5761 61.6804 28.4732 58.2723 28.4732 54.6429C28.4732 51.014 29.5759 47.6059 31.3722 45.6176H37.996C39.7922 47.606 40.8949 51.014 40.8949 54.6429Z" fill="black"/>
<path id="Vector_21" d="M20.4511 51.3409C18.6303 51.3409 17.1491 52.8221 17.1491 54.6428C17.1491 56.4635 18.6303 57.9448 20.4511 57.9448C22.2718 57.9448 23.7532 56.4635 23.7532 54.6428C23.7532 52.8221 22.2718 51.3409 20.4511 51.3409ZM20.4511 55.8942C19.7613 55.8942 19.1999 55.333 19.1999 54.6429C19.1999 53.953 19.7613 53.3918 20.4511 53.3918C21.141 53.3918 21.7024 53.953 21.7024 54.6429C21.7024 55.333 21.141 55.8942 20.4511 55.8942ZM52.219 54.6429C52.219 52.8222 50.7378 51.341 48.9169 51.341C47.0961 51.341 45.6149 52.8222 45.6149 54.6429C45.6149 56.4636 47.0961 57.945 48.9169 57.945C50.7378 57.945 52.219 56.4636 52.219 54.6429ZM47.6657 54.6429C47.6657 53.953 48.2271 53.3918 48.9169 53.3918C49.6068 53.3918 50.1682 53.953 50.1682 54.6429C50.1682 55.333 49.607 55.8942 48.9169 55.8942C48.2269 55.8942 47.6657 55.333 47.6657 54.6429ZM31.2324 51.5309V52.834C31.2315 53.3223 31.3856 53.7982 31.6727 54.1932C31.9597 54.5882 32.3647 54.8818 32.8294 55.0318L35.7989 55.9964C35.8512 56.0134 35.8968 56.0464 35.9291 56.0909C35.9615 56.1354 35.9788 56.1891 35.9787 56.244V57.154C35.9785 57.3551 35.8985 57.5478 35.7564 57.69C35.6142 57.8322 35.4215 57.9122 35.2204 57.9124H34.0414C33.8403 57.9122 33.6476 57.8322 33.5055 57.69C33.3633 57.5478 33.2834 57.3551 33.2831 57.154C33.2831 56.5876 32.824 56.1287 32.2578 56.1287C31.6915 56.1287 31.2324 56.5876 31.2324 57.154C31.2324 58.5545 32.2634 59.7153 33.6055 59.9259V61.0483C33.6055 61.6148 34.0646 62.0737 34.6309 62.0737C35.1972 62.0737 35.6563 61.6148 35.6563 61.0483V59.9259C36.9985 59.7153 38.0295 58.5545 38.0295 57.154V56.244C38.0304 55.7558 37.8762 55.2798 37.5892 54.8848C37.3022 54.4898 36.8971 54.1961 36.4325 54.0462L33.4628 53.0815C33.4105 53.0646 33.3649 53.0315 33.3325 52.9871C33.3002 52.9426 33.2829 52.889 33.283 52.834V51.5309C33.2832 51.386 33.3408 51.2471 33.4433 51.1446C33.5458 51.0422 33.6847 50.9845 33.8296 50.9843H35.432C35.5769 50.9845 35.7158 51.0421 35.8183 51.1446C35.9208 51.2471 35.9785 51.386 35.9787 51.5309C35.9787 52.0974 36.4378 52.5563 37.0041 52.5563C37.5704 52.5563 38.0295 52.0974 38.0295 51.5309C38.0295 50.1744 36.9837 49.0592 35.6563 48.9449V47.8483C35.6563 47.2819 35.1972 46.8229 34.6309 46.8229C34.0646 46.8229 33.6055 47.2819 33.6055 47.8483V48.9449C32.2781 49.0592 31.2324 50.1744 31.2324 51.5309ZM61.548 6.71658L52.7665 0.201932C52.5898 0.070808 52.3756 1.52588e-05 52.1555 1.52588e-05C51.9355 1.52588e-05 51.7213 0.070808 51.5445 0.201932L42.7631 6.71658C42.59 6.84513 42.4618 7.02498 42.3968 7.23055C42.3317 7.43612 42.3331 7.65697 42.4008 7.86169C42.4684 8.06642 42.5989 8.24461 42.7736 8.37095C42.9484 8.49729 43.1585 8.56534 43.3741 8.56543H46.762V13.4712H39.052C38.78 13.4712 38.5192 13.5792 38.3269 13.7715C38.1346 13.9638 38.0266 14.2246 38.0266 14.4966V17.6408H30.3161C30.0441 17.6408 29.7833 17.7489 29.591 17.9411C29.3987 18.1334 29.2907 18.3943 29.2907 18.6662V21.8106H21.5802C21.3082 21.8106 21.0474 21.9186 20.8551 22.1109C20.6628 22.3032 20.5548 22.564 20.5548 22.836V25.3065H12.8442C12.5723 25.3065 12.3115 25.4145 12.1192 25.6068C11.9269 25.7991 11.8188 26.0599 11.8188 26.3319V35.1851C11.8188 35.4571 11.9269 35.7179 12.1192 35.9102C12.3115 36.1025 12.5723 36.2105 12.8442 36.2105H47.7879C47.7924 36.2105 47.7967 36.21 47.8012 36.2098H56.5237C56.7956 36.2098 57.0565 36.1018 57.2488 35.9095C57.441 35.7172 57.5491 35.4564 57.5491 35.1844V22.6104C57.5491 22.044 57.09 21.585 56.5237 21.585C55.9574 21.585 55.4983 22.044 55.4983 22.6104V34.159H48.8133V14.4966C48.8133 14.4926 48.8128 14.4886 48.8128 14.4847V7.54004C48.8128 7.26809 48.7047 7.00727 48.5124 6.81498C48.3201 6.62268 48.0593 6.51465 47.7874 6.51465H46.4772L52.1555 2.30207L57.8339 6.51465H56.5237C56.2517 6.51465 55.9909 6.62268 55.7986 6.81498C55.6063 7.00727 55.4983 7.26809 55.4983 7.54004V18.1412C55.4983 18.7076 55.9574 19.1666 56.5237 19.1666C57.09 19.1666 57.5491 18.7076 57.5491 18.1412V8.56543H60.937C61.1526 8.56542 61.3628 8.49742 61.5376 8.3711C61.7124 8.24477 61.8429 8.06655 61.9106 7.86179C61.9782 7.65702 61.9796 7.43613 61.9145 7.23053C61.8494 7.02493 61.7212 6.84509 61.548 6.71658ZM13.8696 27.3574H20.5548V34.1599H13.8696V27.3574ZM22.6055 26.332V23.8615H29.2907V34.1599H22.6055V26.332ZM31.3415 22.836V19.6916H38.0266V34.1597H31.3415V22.836ZM40.0774 18.6662V15.522H46.762V34.1597H40.0774V18.6662Z" fill="black"/>
</g>
</g>
<defs>
<clipPath id="clip0_30_310">
<rect width="70" height="70" fill="white"/>
</clipPath>
</defs>
</svg>
